<?xml version="1.0" standalone="no"?>
<!DOCTYPE svg PUBLIC "-//W3C//DTD SVG 20010904//EN"
 "http://www.w3.org/TR/2001/REC-SVG-20010904/DTD/svg10.dtd">
<svg version="1.0" xmlns="http://www.w3.org/2000/svg"
 width="117.000000pt" height="234.000000pt" viewBox="0 0 117.000000 234.000000"
 preserveAspectRatio="xMidYMid meet">
<metadata>
Created by potrace 1.10, written by Peter Selinger 2001-2011
</metadata>
<g transform="translate(0.000000,234.000000) scale(0.100000,-0.100000)"
fill="#000000" stroke="none">
<path d="M203 2329 c3 -15 -20 -27 -65 -34 -43 -7 -92 -47 -107 -88 -14 -36
-15 -868 -1 -915 27 -97 73 -104 611 -100 l395 3 37 25 c66 45 67 50 67 526 0
448 -1 458 -47 509 -27 30 -70 55 -93 55 -11 0 -23 7 -26 15 -9 23 -464 23
-464 0 0 -8 -9 -15 -20 -15 -11 0 -20 7 -20 15 0 13 -22 15 -135 15 -93 0
-134 -3 -132 -11z m872 -584 l0 -500 -500 0 -500 -1 0 501 0 500 500 0 500 0
0 -500z"/>
<path d="M465 2098 c-149 -50 -243 -166 -261 -322 -11 -93 31 -206 106 -285
57 -60 111 -93 147 -89 51 6 38 68 -14 68 -30 0 -63 17 -83 42 -8 10 -27 33
-42 50 -33 38 -34 44 -8 51 15 4 32 -7 64 -40 47 -49 85 -59 113 -30 23 23 11
40 -40 55 -101 30 -145 138 -96 238 16 34 18 47 9 63 -11 22 1 58 24 73 14 9
45 0 64 -18 10 -10 44 -14 127 -14 83 0 117 4 127 14 46 46 108 8 87 -53 -7
-20 -4 -36 11 -66 33 -64 23 -153 -22 -201 -13 -13 -47 -31 -75 -40 -54 -16
-65 -32 -38 -54 12 -10 14 -26 9 -76 -7 -64 -7 -64 19 -64 47 0 172 98 198
155 5 11 13 27 18 35 24 40 43 134 37 186 -18 159 -115 276 -267 323 -43 13
-172 13 -214 -1z"/>
<path d="M450 928 c-103 -37 -187 -118 -226 -219 -25 -65 -30 -192 -9 -243 35
-84 51 -109 99 -156 63 -64 128 -97 162 -81 46 21 20 70 -41 76 -33 3 -47 12
-87 56 -27 30 -48 59 -48 66 0 27 37 11 80 -32 49 -49 75 -56 108 -25 30 28
18 47 -42 64 -28 9 -62 26 -74 39 -40 43 -47 160 -11 203 7 8 9 29 6 50 -11
65 31 97 75 58 14 -14 40 -17 133 -17 93 0 119 3 133 17 44 39 86 7 75 -58 -3
-21 -1 -42 6 -50 39 -47 30 -160 -16 -209 -15 -15 -47 -33 -71 -39 -47 -12
-61 -30 -42 -53 9 -11 11 -34 6 -80 l-7 -65 39 0 c23 0 45 6 52 15 7 8 18 15
24 15 13 0 116 103 116 116 0 4 6 15 13 23 7 9 21 39 31 68 21 63 18 176 -8
242 -72 187 -289 287 -476 219z"/>
</g>
</svg>
