<?xml version="1.0" standalone="no"?>
<!DOCTYPE svg PUBLIC "-//W3C//DTD SVG 20010904//EN"
 "http://www.w3.org/TR/2001/REC-SVG-20010904/DTD/svg10.dtd">
<svg version="1.0" xmlns="http://www.w3.org/2000/svg"
 width="117.000000pt" height="234.000000pt" viewBox="0 0 117.000000 234.000000"
 preserveAspectRatio="xMidYMid meet">
<metadata>
Created by potrace 1.10, written by Peter Selinger 2001-2011
</metadata>
<g transform="translate(0.000000,234.000000) scale(0.100000,-0.100000)"
fill="#000000" stroke="none">
<path d="M808 2324 c-3 -14 -41 -16 -318 -18 -179 -1 -333 -7 -358 -13 -46
-11 -86 -45 -102 -87 -14 -37 -14 -885 0 -922 21 -53 52 -74 126 -82 38 -4
252 -7 475 -7 l405 0 37 25 c66 45 67 50 67 526 0 462 -1 468 -57 520 -15 14
-41 33 -56 40 -15 8 -25 19 -22 24 4 6 -33 10 -94 10 -82 0 -100 -3 -103 -16z
m270 -578 l-1 -504 -504 -1 -503 -1 0 505 0 505 505 0 505 0 -2 -504z"/>
<path d="M197 2130 c-18 -15 -19 -35 -19 -369 0 -313 2 -355 17 -371 15 -17
40 -18 376 -16 l361 1 19 24 c12 15 17 31 13 40 -4 9 -8 166 -8 348 -1 221 -6
337 -13 344 -7 7 -131 11 -369 12 -308 2 -361 0 -377 -13z m658 -46 c8 -4 22
-19 30 -35 19 -36 20 -139 1 -165 -14 -19 -15 -19 -43 2 -44 33 -69 38 -205
38 -101 1 -130 4 -143 17 -21 21 -39 130 -22 141 14 9 358 11 382 2z m-446
-55 c34 -33 37 -46 20 -83 -14 -30 -67 -50 -108 -41 -32 7 -61 42 -61 74 0 30
57 81 90 81 18 0 39 -11 59 -31z m371 -162 c32 -15 60 -44 60 -60 0 -7 4 -17
9 -22 13 -13 17 -293 5 -305 -10 -10 -131 -16 -140 -7 -4 3 -2 57 3 119 12
137 2 168 -50 168 -25 0 -36 -7 -49 -30 -16 -27 -16 -42 -7 -141 6 -62 7 -114
3 -118 -5 -4 -38 -5 -74 -2 l-65 6 0 200 0 200 52 3 c48 3 54 1 65 -23 10 -22
13 -23 27 -11 48 44 101 51 161 23z m-366 -197 l1 -195 -70 -3 -70 -3 3 188
c2 103 4 193 6 198 2 6 31 11 66 10 l63 -1 1 -194z"/>
<path d="M187 962 c-15 -17 -17 -57 -17 -374 0 -331 1 -356 18 -371 17 -15 58
-17 385 -17 l366 0 20 27 c15 18 19 33 14 47 -4 12 -6 166 -4 344 3 297 2 325
-14 343 -17 18 -34 19 -385 19 -343 0 -368 -1 -383 -18z m213 -102 c27 -26 31
-35 26 -62 -8 -41 -32 -57 -84 -58 -37 0 -45 4 -62 33 -11 17 -20 35 -20 39 0
15 72 78 89 78 11 0 33 -14 51 -30z m375 -20 c10 -11 14 -20 9 -21 -96 -6
-205 -5 -210 3 -13 21 32 37 107 38 63 0 79 -3 94 -20z m3 -147 c70 -45 82
-81 82 -249 l0 -134 -52 -1 c-65 -2 -81 1 -88 11 -3 5 -1 54 4 109 11 130 1
161 -54 161 -30 0 -41 -6 -55 -27 -15 -23 -17 -42 -11 -139 7 -128 10 -123
-78 -114 l-50 5 0 190 0 190 52 3 c49 3 53 1 63 -25 9 -24 12 -26 22 -13 38
49 115 64 165 33z m-366 -183 c2 -99 2 -185 0 -190 -2 -6 -32 -10 -66 -10
l-63 0 2 188 c1 103 3 188 4 190 0 1 28 2 61 2 l59 0 3 -180z"/>
</g>
</svg>
