<?xml version="1.0" standalone="no"?>
<!DOCTYPE svg PUBLIC "-//W3C//DTD SVG 20010904//EN"
 "http://www.w3.org/TR/2001/REC-SVG-20010904/DTD/svg10.dtd">
<svg version="1.0" xmlns="http://www.w3.org/2000/svg"
 width="117.000000pt" height="234.000000pt" viewBox="0 0 117.000000 234.000000"
 preserveAspectRatio="xMidYMid meet">
<metadata>
Created by potrace 1.10, written by Peter Selinger 2001-2011
</metadata>
<g transform="translate(0.000000,234.000000) scale(0.100000,-0.100000)"
fill="#000000" stroke="none">
<path d="M203 2329 c3 -15 -20 -27 -66 -34 -45 -7 -87 -46 -104 -96 -17 -46
-19 -873 -3 -915 34 -89 81 -96 611 -92 l395 3 37 25 c66 45 67 50 67 526 0
448 -2 466 -47 511 -30 30 -71 53 -93 53 -11 0 -23 7 -26 15 -5 13 -58 15
-390 15 -273 0 -383 -3 -381 -11z m872 -584 l0 -500 -500 0 -500 0 0 500 0
500 500 0 500 0 0 -500z"/>
<path d="M375 2007 c-79 -84 -74 -171 13 -229 15 -10 39 -18 53 -18 21 0 28
-6 32 -27 8 -44 -8 -63 -54 -63 -29 0 -52 -9 -84 -32 -43 -32 -44 -34 -45 -90
0 -56 1 -59 42 -88 38 -28 48 -30 125 -30 91 0 115 9 165 65 23 24 28 40 28
81 0 49 -2 53 -61 111 l-60 59 45 51 c43 48 46 54 46 107 0 41 -4 58 -15 62
-24 10 -17 32 10 36 14 2 25 8 25 13 0 6 -49 11 -122 12 -114 2 -124 0 -143
-20z m130 -15 c24 -16 55 -85 55 -120 -1 -76 -74 -113 -123 -61 -22 23 -57 92
-57 111 0 6 9 26 21 44 17 29 26 34 57 34 20 0 42 -4 47 -8z m18 -343 c45 -24
71 -59 70 -94 -1 -44 -7 -52 -50 -70 -91 -38 -193 1 -193 74 0 29 6 40 33 59
18 12 42 22 53 22 10 0 26 5 34 10 19 13 27 12 53 -1z"/>
<path d="M785 1870 c-4 -6 -5 -25 -3 -43 3 -31 2 -32 -40 -35 -38 -3 -43 -6
-40 -25 2 -16 11 -23 33 -25 38 -4 49 -15 50 -50 0 -20 6 -28 22 -30 19 -3 22
2 25 35 3 36 5 38 43 43 32 4 41 9 43 28 3 20 -1 22 -42 22 l-46 0 0 45 c0 38
-3 45 -19 45 -11 0 -23 -5 -26 -10z"/>
<path d="M382 847 c-108 -77 -79 -235 48 -257 32 -5 35 -8 35 -40 0 -34 -1
-35 -51 -45 -28 -5 -67 -23 -88 -38 -35 -27 -36 -30 -36 -92 0 -64 0 -65 39
-91 27 -18 58 -27 99 -31 91 -8 126 2 179 53 46 43 48 47 48 100 0 55 -1 56
-57 109 -32 29 -58 57 -58 61 0 5 18 29 40 54 22 24 42 57 45 72 8 35 -2 83
-21 98 -18 16 -9 30 21 30 27 0 43 18 23 25 -7 2 -63 6 -124 9 -102 4 -114 3
-142 -17z m119 -27 c22 -12 59 -88 59 -123 0 -32 -40 -77 -68 -77 -30 0 -82
39 -82 61 0 10 -4 21 -10 24 -5 3 -10 22 -10 41 0 63 58 102 111 74z m51 -366
c32 -23 38 -32 38 -63 0 -46 -7 -55 -54 -75 -65 -27 -107 -20 -163 28 -49 42
-13 107 71 126 53 13 69 11 108 -16z"/>
<path d="M775 698 c-3 -7 -4 -26 -2 -43 2 -28 -1 -30 -31 -31 -44 -1 -57 -15
-42 -44 8 -16 18 -20 33 -16 32 8 51 -7 42 -33 -8 -26 10 -51 36 -51 19 0 21
3 23 55 1 28 3 30 38 27 29 -3 39 1 48 18 16 30 0 45 -48 45 -36 0 -37 1 -37
40 0 36 -3 40 -28 43 -16 2 -29 -2 -32 -10z"/>
</g>
</svg>
