<?xml version="1.0" standalone="no"?>
<!DOCTYPE svg PUBLIC "-//W3C//DTD SVG 20010904//EN"
 "http://www.w3.org/TR/2001/REC-SVG-20010904/DTD/svg10.dtd">
<svg version="1.0" xmlns="http://www.w3.org/2000/svg"
 width="117.000000pt" height="234.000000pt" viewBox="0 0 117.000000 234.000000"
 preserveAspectRatio="xMidYMid meet">
<metadata>
Created by potrace 1.10, written by Peter Selinger 2001-2011
</metadata>
<g transform="translate(0.000000,234.000000) scale(0.100000,-0.100000)"
fill="#000000" stroke="none">
<path d="M203 2329 c3 -15 -20 -27 -66 -34 -45 -7 -87 -46 -104 -96 -17 -46
-19 -873 -3 -915 34 -89 81 -96 611 -92 l395 3 37 25 c66 45 67 50 67 526 0
448 -2 466 -47 511 -30 30 -71 53 -93 53 -11 0 -23 7 -26 15 -5 13 -58 15
-390 15 -273 0 -383 -3 -381 -11z m872 -584 l0 -500 -500 0 -500 0 0 500 0
500 500 0 500 0 0 -500z"/>
<path d="M542 2028 c-5 -7 -13 -38 -17 -68 -10 -85 -24 -129 -43 -139 -14 -8
-134 -1 -195 12 -20 4 -20 -40 0 -47 10 -3 41 -20 68 -36 28 -17 62 -36 78
-41 32 -13 35 -37 7 -72 -11 -14 -20 -29 -20 -34 0 -4 -12 -30 -25 -58 -54
-109 -20 -113 82 -10 40 41 78 75 83 75 5 0 43 -34 83 -75 40 -41 81 -75 90
-75 24 0 22 41 -3 70 -11 13 -20 32 -20 42 0 11 -9 31 -20 45 -40 51 -29 73
70 131 118 69 119 86 8 76 -95 -10 -136 -10 -145 -1 -7 8 -22 80 -30 147 -5
44 -17 70 -33 70 -4 0 -12 -6 -18 -12z m63 -234 c45 -34 48 -46 25 -98 -18
-38 -24 -44 -57 -48 -29 -4 -41 1 -63 22 -15 15 -31 41 -34 57 -6 26 -2 34 29
62 43 38 57 38 100 5z"/>
<path d="M551 866 c-6 -8 -14 -38 -17 -67 -3 -30 -13 -75 -22 -101 -16 -47
-17 -48 -56 -48 -44 0 -141 14 -167 25 -10 4 -19 0 -22 -9 -8 -19 1 -46 15
-46 17 0 178 -102 178 -113 0 -10 -47 -107 -75 -157 -18 -31 -19 -60 -2 -61
28 -3 40 5 105 71 37 39 74 70 81 70 7 0 45 -31 83 -70 76 -76 118 -92 118
-46 0 14 -5 28 -11 32 -6 3 -22 30 -35 59 -12 29 -28 56 -33 60 -6 3 -11 17
-11 29 0 18 18 34 84 75 46 28 89 51 95 51 8 0 11 11 9 28 -2 21 -8 26 -23 24
-11 -2 -57 -9 -102 -15 -75 -9 -85 -8 -103 8 -12 10 -20 31 -20 48 0 17 -4 44
-10 61 -5 17 -12 48 -15 69 -6 38 -24 48 -44 23z"/>
</g>
</svg>
