<?xml version="1.0" standalone="no"?>
<!DOCTYPE svg PUBLIC "-//W3C//DTD SVG 20010904//EN"
 "http://www.w3.org/TR/2001/REC-SVG-20010904/DTD/svg10.dtd">
<svg version="1.0" xmlns="http://www.w3.org/2000/svg"
 width="117.000000pt" height="234.000000pt" viewBox="0 0 117.000000 234.000000"
 preserveAspectRatio="xMidYMid meet">
<metadata>
Created by potrace 1.10, written by Peter Selinger 2001-2011
</metadata>
<g transform="translate(0.000000,234.000000) scale(0.100000,-0.100000)"
fill="#000000" stroke="none">
<path d="M203 2329 c3 -15 -20 -27 -66 -34 -44 -7 -87 -46 -104 -95 -16 -46
-18 -875 -2 -916 20 -54 50 -73 130 -83 41 -5 254 -9 475 -8 l400 2 37 25 c66
45 67 56 66 464 -1 200 2 369 5 375 4 6 12 9 17 6 5 -4 9 1 9 9 0 9 -5 15 -12
13 -8 -1 -15 18 -19 53 -9 83 -22 103 -102 156 -21 13 -35 29 -32 34 4 6 -70
10 -198 10 -173 0 -206 -2 -211 -15 -4 -11 -21 -15 -66 -15 -45 0 -62 4 -66
15 -5 12 -30 15 -135 15 -88 0 -128 -3 -126 -11z m873 -584 l0 -502 -501 0
-500 0 0 502 0 501 501 0 501 0 -1 -501z"/>
<path d="M495 2151 c-121 -23 -261 -138 -303 -250 -36 -95 -38 -225 -6 -301
35 -82 51 -104 111 -160 95 -89 133 -104 278 -104 111 -1 124 1 178 27 60 28
197 156 197 184 0 7 8 26 18 40 14 22 17 50 17 153 0 103 -3 131 -17 153 -10
14 -18 33 -18 42 0 9 -35 51 -77 93 -61 62 -91 83 -137 100 -64 24 -177 35
-241 23z m228 -92 c72 -35 144 -106 178 -176 21 -41 24 -63 24 -149 0 -74 -4
-106 -15 -119 -14 -17 -32 -45 -46 -74 -9 -17 -65 -72 -90 -88 -77 -49 -109
-58 -199 -57 -82 0 -95 3 -152 33 -84 45 -125 90 -172 190 -26 54 -30 204 -6
235 8 11 15 28 15 38 0 10 3 18 8 18 4 0 18 18 32 40 26 43 67 76 145 114 41
20 66 25 133 25 73 1 91 -3 145 -30z"/>
<path d="M501 1955 c-34 -25 -64 -45 -67 -45 -9 0 -86 -60 -101 -79 -8 -9 -13
-46 -13 -97 l0 -83 45 -27 c25 -14 45 -30 45 -35 0 -5 5 -9 11 -9 6 0 37 -20
69 -45 35 -27 69 -45 85 -45 15 0 55 20 93 47 37 25 87 61 112 78 l45 32 3 95
3 95 -67 44 c-36 24 -77 50 -90 57 -13 7 -24 17 -24 23 0 5 -6 9 -14 9 -7 0
-19 7 -26 15 -20 24 -44 18 -109 -30z m59 -75 c0 -43 -3 -52 -22 -60 -13 -5
-35 -20 -51 -32 -26 -21 -29 -22 -55 -6 -43 26 -40 52 10 78 24 12 54 33 67
46 38 38 51 31 51 -26z m96 19 c22 -17 54 -38 72 -45 42 -19 42 -46 -1 -72
l-34 -19 -33 28 c-18 16 -36 29 -40 29 -11 0 -30 57 -30 86 0 32 20 30 66 -7z
m-28 -128 c27 -23 28 -33 5 -53 -34 -30 -62 -31 -99 -6 -35 23 -45 48 -20 48
7 0 19 7 26 15 17 20 60 18 88 -4z m172 -31 c0 -36 -11 -43 -38 -24 -28 19
-28 38 1 51 29 14 37 8 37 -27z m-390 15 c10 -12 10 -18 0 -30 -27 -32 -71 -8
-56 30 3 8 14 15 24 15 11 0 25 -7 32 -15z m86 -62 c10 -10 27 -23 38 -28 17
-8 22 -22 24 -63 3 -55 -11 -69 -38 -37 -16 20 -98 75 -111 75 -11 0 -12 30
-1 46 17 27 64 30 88 7z m234 7 c11 -6 24 -19 30 -30 9 -17 6 -21 -22 -33 -18
-8 -53 -31 -77 -51 -48 -40 -64 -42 -69 -7 -6 42 7 69 50 100 45 33 59 37 88
21z"/>
<path d="M485 986 c-161 -48 -278 -166 -322 -326 -22 -82 -12 -171 30 -260 27
-54 38 -69 101 -131 92 -92 175 -123 307 -118 114 5 189 42 282 137 37 39 67
76 67 83 0 7 6 20 13 28 49 58 49 284 0 342 -7 8 -13 22 -13 30 0 17 -79 101
-135 144 -96 74 -226 101 -330 71z m193 -82 c100 -44 161 -88 187 -136 55 -98
58 -110 58 -199 0 -65 -4 -94 -16 -113 -10 -14 -17 -31 -17 -39 0 -28 -99
-123 -161 -156 -57 -30 -72 -33 -146 -34 -93 0 -138 15 -212 70 -54 40 -85 81
-117 153 -22 47 -25 66 -21 130 4 86 18 126 65 191 39 54 76 84 152 121 66 33
169 38 228 12z"/>
<path d="M540 815 c-7 -8 -19 -15 -26 -15 -8 0 -14 -4 -14 -9 0 -5 -17 -20
-37 -32 -21 -13 -62 -41 -90 -62 l-53 -39 0 -87 0 -87 47 -35 c199 -148 211
-152 302 -86 33 23 82 58 109 77 47 33 51 38 54 82 2 27 1 70 0 97 -4 46 -6
51 -59 87 -30 22 -81 58 -114 82 -62 44 -98 52 -119 27z m20 -104 c0 -32 -6
-42 -37 -67 -57 -45 -60 -46 -93 -29 -36 19 -40 51 -7 61 12 4 44 24 72 45 27
21 53 35 57 33 4 -3 8 -22 8 -43z m115 3 c22 -17 50 -35 63 -38 32 -10 28 -42
-9 -60 -34 -17 -36 -16 -91 28 -33 26 -38 35 -38 72 0 51 10 51 75 -2z m-56
-111 c40 -23 39 -36 -4 -63 -31 -19 -36 -20 -63 -6 -52 27 -57 41 -20 64 42
26 49 26 87 5z m-225 -9 c21 -8 20 -40 -1 -48 -21 -8 -48 17 -40 38 7 17 16
19 41 10z m404 -18 c6 -27 -12 -40 -37 -27 -26 14 -27 38 -3 44 26 7 37 2 40
-17z m-294 -63 c23 -16 44 -32 48 -38 10 -14 10 -83 0 -89 -4 -2 -30 13 -57
35 -28 22 -60 44 -72 49 -28 12 -29 24 -3 50 26 26 36 25 84 -7z m230 6 c30
-24 33 -37 9 -46 -10 -3 -39 -23 -65 -44 -61 -51 -78 -51 -78 1 0 21 6 44 13
50 6 6 25 21 40 35 34 30 47 31 81 4z"/>
</g>
</svg>
