<?xml version="1.0" standalone="no"?>
<!DOCTYPE svg PUBLIC "-//W3C//DTD SVG 20010904//EN"
 "http://www.w3.org/TR/2001/REC-SVG-20010904/DTD/svg10.dtd">
<svg version="1.0" xmlns="http://www.w3.org/2000/svg"
 width="117.000000pt" height="234.000000pt" viewBox="0 0 117.000000 234.000000"
 preserveAspectRatio="xMidYMid meet">
<metadata>
Created by potrace 1.10, written by Peter Selinger 2001-2011
</metadata>
<g transform="translate(0.000000,234.000000) scale(0.100000,-0.100000)"
fill="#000000" stroke="none">
<path d="M203 2329 c3 -15 -20 -27 -66 -34 -45 -7 -87 -46 -104 -96 -17 -46
-19 -873 -3 -915 6 -15 22 -38 35 -52 37 -37 129 -43 576 -40 l395 3 37 25
c66 45 67 51 67 519 0 389 -1 423 -19 463 -21 49 -87 108 -120 108 -12 0 -24
7 -27 15 -5 13 -58 15 -390 15 -273 0 -383 -3 -381 -11z m872 -584 l0 -500
-500 0 -500 0 0 500 0 500 500 0 500 0 0 -500z"/>
<path d="M567 1960 c-38 -39 -39 -41 -35 -107 l3 -68 -47 3 -48 4 0 -47 0 -47
48 4 47 3 -4 -122 -3 -123 62 0 62 0 -3 123 -4 122 48 -3 47 -4 0 47 0 46 -47
-3 -48 -3 0 50 0 50 48 -3 47 -3 0 60 0 61 -67 0 c-66 -1 -69 -2 -106 -40z
m38 -216 c0 -32 -21 -39 -38 -12 -8 12 -7 21 3 32 19 24 35 14 35 -20z"/>
<path d="M350 545 l0 -256 123 3 122 3 -1 85 c-2 85 -2 85 -30 90 -31 6 -44
36 -36 88 4 28 8 32 33 32 27 0 29 3 29 39 0 30 8 47 34 75 32 36 36 37 92 34
l59 -3 0 -40 c0 -38 -2 -40 -32 -43 -25 -3 -34 -9 -39 -28 -8 -30 -1 -38 34
-39 25 0 27 -3 30 -52 2 -32 -1 -53 -7 -53 -50 0 -56 -12 -56 -102 l0 -83 61
-3 c58 -3 62 -1 65 20 3 13 4 127 4 253 l0 230 -242 3 -243 2 0 -255z"/>
</g>
</svg>
