<?xml version="1.0" standalone="no"?>
<!DOCTYPE svg PUBLIC "-//W3C//DTD SVG 20010904//EN"
 "http://www.w3.org/TR/2001/REC-SVG-20010904/DTD/svg10.dtd">
<svg version="1.0" xmlns="http://www.w3.org/2000/svg"
 width="117.000000pt" height="234.000000pt" viewBox="0 0 117.000000 234.000000"
 preserveAspectRatio="xMidYMid meet">
<metadata>
Created by potrace 1.10, written by Peter Selinger 2001-2011
</metadata>
<g transform="translate(0.000000,234.000000) scale(0.100000,-0.100000)"
fill="#000000" stroke="none">
<path d="M203 2329 c3 -15 -20 -27 -66 -34 -45 -7 -87 -46 -104 -96 -17 -46
-19 -873 -3 -915 6 -15 22 -38 35 -52 37 -37 129 -43 576 -40 l395 3 37 25
c66 45 67 51 67 519 0 389 -1 423 -19 463 -21 49 -87 108 -120 108 -12 0 -24
7 -27 15 -5 13 -58 15 -390 15 -273 0 -383 -3 -381 -11z m872 -584 l0 -500
-500 0 -500 0 0 500 0 500 500 0 500 0 0 -500z"/>
<path d="M350 1940 c-15 -22 -20 -41 -18 -72 l3 -43 83 2 c65 1 88 5 103 19
29 26 117 25 150 -1 20 -16 41 -20 105 -20 l79 0 3 42 c2 31 -3 50 -19 73
l-23 30 -222 0 -223 0 -21 -30z"/>
<path d="M549 1787 c-28 -19 -34 -30 -36 -62 -4 -52 15 -75 66 -82 63 -9 91
15 91 76 0 45 -3 51 -34 70 -42 26 -45 26 -87 -2z"/>
<path d="M339 1755 c-3 -2 -4 -57 -3 -121 2 -98 5 -121 22 -143 l19 -26 211
-3 c206 -2 211 -2 237 20 25 22 26 27 27 148 l2 125 -55 0 -54 0 3 -41 c2 -27
-2 -45 -13 -54 -8 -7 -15 -19 -15 -27 0 -8 -13 -22 -30 -31 -16 -9 -30 -20
-30 -24 0 -14 -128 -9 -137 5 -4 6 -17 17 -27 23 -11 6 -23 17 -27 25 -26 54
-31 70 -25 92 4 18 1 27 -10 31 -18 7 -89 8 -95 1z m431 -168 c0 -28 -17 -47
-42 -47 -24 0 -23 19 4 47 27 29 38 29 38 0z m-300 -27 c9 -17 8 -20 -10 -20
-11 0 -20 2 -20 4 0 2 -3 11 -6 20 -9 24 23 20 36 -4z"/>
<path d="M565 803 c-174 -4 -181 -5 -197 -27 -13 -19 -18 -60 -24 -233 l-7
-210 32 -22 c30 -22 40 -23 227 -23 193 -1 196 0 219 23 29 29 28 20 26 260
-1 139 -5 200 -13 211 -17 22 -50 25 -263 21z m233 -72 c2 -12 1 -34 -3 -48
-5 -21 -11 -24 -43 -21 -34 3 -37 6 -40 36 -5 53 3 64 45 60 31 -2 39 -7 41
-27z m-129 -108 c31 -39 36 -70 17 -110 -22 -45 -76 -70 -118 -52 -67 28 -92
116 -45 165 17 19 32 24 74 24 44 0 55 -4 72 -27z m-219 -60 c0 -98 56 -158
149 -158 87 0 131 41 141 130 4 45 7 50 30 50 25 0 25 0 28 -109 1 -60 -1
-113 -6 -118 -9 -9 -158 -13 -313 -10 l-86 2 -6 113 c-3 61 -3 115 0 120 2 4
17 7 34 7 25 0 29 -4 29 -27z"/>
</g>
</svg>
