<?xml version="1.0" standalone="no"?>
<!DOCTYPE svg PUBLIC "-//W3C//DTD SVG 20010904//EN"
 "http://www.w3.org/TR/2001/REC-SVG-20010904/DTD/svg10.dtd">
<svg version="1.0" xmlns="http://www.w3.org/2000/svg"
 width="117.000000pt" height="234.000000pt" viewBox="0 0 117.000000 234.000000"
 preserveAspectRatio="xMidYMid meet">
<metadata>
Created by potrace 1.10, written by Peter Selinger 2001-2011
</metadata>
<g transform="translate(0.000000,234.000000) scale(0.100000,-0.100000)"
fill="#000000" stroke="none">
<path d="M203 2329 c3 -15 -20 -27 -66 -34 -45 -7 -87 -46 -104 -96 -17 -46
-19 -873 -3 -915 6 -15 22 -38 35 -52 37 -37 129 -43 576 -40 l395 3 37 25
c66 45 67 51 67 519 0 389 -1 423 -19 463 -21 49 -87 108 -120 108 -12 0 -24
7 -27 15 -5 13 -58 15 -390 15 -273 0 -383 -3 -381 -11z m872 -584 l0 -500
-500 0 -500 0 0 500 0 500 500 0 500 0 0 -500z"/>
<path d="M370 1868 c0 -21 13 -34 50 -53 31 -16 73 -45 145 -100 26 -20 26
-20 76 19 24 18 69 48 99 67 57 35 82 58 74 71 -3 5 -104 8 -225 8 -169 0
-219 -3 -219 -12z"/>
<path d="M364 1675 c1 -58 7 -110 12 -115 12 -12 420 -17 432 -6 3 4 7 56 7
116 2 128 -2 132 -68 71 -56 -53 -93 -81 -105 -81 -5 0 -12 -7 -16 -15 -3 -9
-18 -15 -36 -15 -18 0 -33 6 -36 15 -4 8 -12 15 -19 15 -6 0 -42 27 -78 60
-92 84 -95 83 -93 -45z"/>
<path d="M379 703 c-7 -7 0 -18 23 -34 18 -13 38 -29 43 -35 6 -7 28 -23 50
-37 22 -13 51 -34 64 -46 13 -11 28 -21 32 -21 7 0 157 108 203 146 12 10 15
19 8 26 -14 14 -411 16 -423 1z"/>
<path d="M378 588 c-2 -7 -2 -57 0 -110 l3 -98 210 0 209 0 2 90 c0 50 1 96 2
102 2 25 -37 19 -68 -9 -64 -59 -125 -103 -144 -103 -10 0 -30 9 -43 20 -87
72 -151 120 -159 120 -4 0 -10 -6 -12 -12z"/>
</g>
</svg>
