<?xml version="1.0" standalone="no"?>
<!DOCTYPE svg PUBLIC "-//W3C//DTD SVG 20010904//EN"
 "http://www.w3.org/TR/2001/REC-SVG-20010904/DTD/svg10.dtd">
<svg version="1.0" xmlns="http://www.w3.org/2000/svg"
 width="117.000000pt" height="234.000000pt" viewBox="0 0 117.000000 234.000000"
 preserveAspectRatio="xMidYMid meet">
<metadata>
Created by potrace 1.10, written by Peter Selinger 2001-2011
</metadata>
<g transform="translate(0.000000,234.000000) scale(0.100000,-0.100000)"
fill="#000000" stroke="none">
<path d="M203 2329 c3 -15 -20 -27 -66 -34 -45 -7 -87 -46 -104 -96 -17 -46
-19 -873 -3 -915 34 -89 82 -96 611 -92 l396 3 36 25 c66 45 67 50 67 526 0
448 -2 466 -47 511 -30 30 -71 53 -93 53 -11 0 -23 7 -26 15 -5 13 -58 15
-390 15 -273 0 -383 -3 -381 -11z m872 -584 l0 -500 -500 0 -500 0 0 500 0
500 500 0 500 0 0 -500z"/>
<path d="M259 1988 c-3 -29 3 -44 24 -60 21 -16 22 -22 20 -172 -1 -86 -5
-160 -8 -166 -3 -5 -12 -10 -20 -10 -16 0 -26 -25 -18 -45 4 -13 21 -15 92
-13 73 3 86 6 89 21 3 13 -6 22 -27 30 -31 11 -31 12 -32 87 0 41 -4 97 -8
125 -11 63 -6 75 29 75 31 0 46 -15 42 -42 -2 -9 7 -38 19 -64 17 -39 20 -59
15 -106 -4 -45 -3 -60 8 -64 8 -3 20 -19 26 -35 9 -20 19 -29 35 -29 37 0 61
62 99 245 l12 60 40 0 39 0 0 -133 c0 -133 0 -133 -22 -127 -26 6 -63 -13 -63
-33 0 -10 26 -12 113 -10 108 3 112 4 115 25 3 17 -3 26 -22 33 l-25 9 -3 153
c-2 84 0 161 4 170 5 9 17 20 29 23 15 5 19 14 17 33 l-3 27 -109 3 c-61 1
-114 -2 -119 -7 -5 -5 -15 -43 -22 -83 -21 -114 -29 -130 -67 -126 -30 3 -33
6 -34 38 -1 19 -7 48 -13 63 -6 16 -11 43 -11 61 0 17 -5 37 -12 44 -17 17
-228 17 -229 0z"/>
<path d="M260 802 c0 -21 7 -32 25 -40 14 -6 25 -17 26 -24 1 -7 1 -80 1 -162
0 -151 -4 -165 -39 -166 -8 0 -13 -13 -13 -30 l0 -30 91 0 90 0 -3 27 c-2 19
-10 29 -28 33 l-25 6 -3 152 c-2 123 0 152 11 152 25 0 47 -36 47 -76 0 -22 7
-49 15 -60 8 -10 15 -36 15 -57 0 -21 7 -54 15 -74 8 -19 15 -46 15 -58 0 -30
22 -47 57 -43 24 3 28 9 35 45 4 23 12 51 17 62 6 11 11 31 11 44 0 14 7 38
15 53 8 16 15 40 15 54 1 30 35 110 48 110 17 0 19 -22 14 -163 -4 -135 -5
-139 -28 -147 -16 -7 -24 -17 -24 -34 0 -24 2 -25 95 -28 53 -2 100 -1 105 0
19 7 10 49 -12 64 -21 14 -23 23 -25 154 -3 163 1 191 28 199 15 5 19 14 17
33 l-3 27 -106 3 -105 3 -17 -58 c-9 -32 -24 -91 -33 -130 -9 -40 -22 -77 -29
-83 -21 -18 -45 16 -45 63 -1 23 -7 53 -15 67 -8 14 -15 43 -15 65 -1 69 -12
75 -134 75 l-106 0 0 -28z"/>
</g>
</svg>
