<?xml version="1.0" standalone="no"?>
<!DOCTYPE svg PUBLIC "-//W3C//DTD SVG 20010904//EN"
 "http://www.w3.org/TR/2001/REC-SVG-20010904/DTD/svg10.dtd">
<svg version="1.0" xmlns="http://www.w3.org/2000/svg"
 width="117.000000pt" height="234.000000pt" viewBox="0 0 117.000000 234.000000"
 preserveAspectRatio="xMidYMid meet">
<metadata>
Created by potrace 1.10, written by Peter Selinger 2001-2011
</metadata>
<g transform="translate(0.000000,234.000000) scale(0.100000,-0.100000)"
fill="#000000" stroke="none">
<path d="M203 2329 c3 -15 -20 -27 -66 -34 -45 -7 -87 -46 -105 -96 -16 -47
-18 -872 -2 -915 34 -89 81 -96 611 -92 l395 3 37 25 c66 45 67 50 67 526 0
448 -1 458 -47 509 -27 30 -70 55 -93 55 -11 0 -23 7 -26 15 -5 13 -58 15
-390 15 -273 0 -383 -3 -381 -11z m872 -584 l0 -500 -500 0 -500 0 0 500 0
500 500 0 500 0 0 -500z"/>
<path d="M565 1943 c-62 -32 -88 -71 -40 -59 19 5 27 1 38 -20 12 -23 15 -24
26 -10 25 30 58 18 123 -43 48 -46 60 -63 51 -72 -17 -17 -145 -24 -172 -10
-17 10 -22 9 -27 -4 -5 -12 -23 -15 -83 -15 -69 1 -74 2 -57 15 11 8 17 18 13
21 -3 4 -52 12 -109 20 -114 15 -150 7 -156 -34 -5 -34 35 -44 207 -49 84 -2
162 -8 173 -14 11 -6 79 -11 150 -11 114 -1 133 2 156 19 20 15 28 30 30 60 3
34 -1 44 -25 63 -21 16 -35 20 -60 15 -27 -5 -34 -2 -39 12 -23 70 -52 100
-113 121 -43 15 -49 15 -86 -5z"/>
<path d="M351 1855 c-12 -15 -20 -34 -18 -43 4 -14 6 -13 12 5 4 14 18 23 41
27 34 7 57 26 30 26 -8 0 -21 2 -28 5 -8 3 -24 -6 -37 -20z"/>
<path d="M552 746 c-34 -20 -72 -54 -72 -66 0 -13 -37 -13 -45 0 -3 6 -19 10
-36 10 -34 0 -71 -37 -79 -78 -5 -24 -9 -27 -45 -25 -75 4 -115 -17 -115 -61
0 -39 40 -49 212 -52 87 -2 167 -8 177 -14 27 -14 267 -13 294 2 33 17 46 39
47 79 0 46 -31 76 -84 81 -36 3 -41 7 -54 44 -9 25 -28 50 -49 64 -40 27 -117
35 -151 16z m-2 -131 c0 -51 -10 -69 -25 -45 -3 6 -17 7 -29 4 -24 -6 -66 27
-66 51 0 15 58 42 93 44 26 1 27 0 27 -54z"/>
</g>
</svg>
