<?xml version="1.0" standalone="no"?>
<!DOCTYPE svg PUBLIC "-//W3C//DTD SVG 20010904//EN"
 "http://www.w3.org/TR/2001/REC-SVG-20010904/DTD/svg10.dtd">
<svg version="1.0" xmlns="http://www.w3.org/2000/svg"
 width="117.000000pt" height="234.000000pt" viewBox="0 0 117.000000 234.000000"
 preserveAspectRatio="xMidYMid meet">
<metadata>
Created by potrace 1.10, written by Peter Selinger 2001-2011
</metadata>
<g transform="translate(0.000000,234.000000) scale(0.100000,-0.100000)"
fill="#000000" stroke="none">
<path d="M203 2329 c3 -15 -20 -27 -66 -34 -45 -7 -87 -46 -104 -96 -17 -46
-19 -873 -3 -915 6 -15 22 -38 35 -52 37 -37 129 -43 576 -40 l395 3 37 25
c66 45 67 51 67 519 0 389 -1 423 -19 463 -21 49 -87 108 -120 108 -12 0 -24
7 -27 15 -5 13 -58 15 -390 15 -273 0 -383 -3 -381 -11z m872 -584 l0 -500
-500 0 -500 0 0 500 0 500 500 0 500 0 0 -500z"/>
<path d="M613 1917 c-18 -19 -21 -31 -16 -65 l6 -42 -51 0 c-42 0 -52 3 -57
20 -4 12 -14 20 -23 18 -18 -3 -62 34 -62 52 0 6 -13 10 -30 10 l-30 0 0 -100
c0 -87 2 -101 19 -110 12 -6 17 -17 14 -29 -3 -13 5 -25 32 -41 22 -14 35 -29
33 -39 -3 -13 -14 -15 -66 -13 -67 4 -76 -4 -42 -38 13 -13 33 -20 59 -20 25
0 41 -5 45 -15 9 -24 102 -21 116 4 8 16 17 19 45 14 26 -4 36 -2 41 11 3 9
16 16 28 16 25 0 68 43 64 63 -2 7 12 27 31 45 33 30 34 32 28 90 -6 60 -6 60
28 83 36 25 46 49 20 49 -8 0 -15 7 -15 15 0 8 7 15 15 15 8 0 15 7 15 15 0
24 -47 19 -61 -7 l-12 -22 -15 22 c-12 19 -23 22 -76 22 -51 0 -65 -4 -83 -23z
m105 -63 c19 -5 22 -13 22 -54 0 -66 -29 -129 -79 -172 -43 -37 -79 -50 -143
-53 -29 -1 -38 3 -38 15 0 9 -4 20 -8 25 -15 19 -44 114 -40 137 3 22 7 23 78
23 74 0 75 1 120 43 47 44 51 45 88 36z"/>
<path d="M658 743 c-19 -3 -30 -12 -34 -28 -3 -13 -12 -29 -19 -35 -7 -6 -11
-20 -8 -31 4 -12 0 -25 -8 -29 -17 -11 -69 -1 -90 16 -8 8 -22 14 -30 14 -7 0
-28 16 -45 35 -22 25 -36 33 -48 29 -10 -4 -15 -13 -12 -21 4 -8 9 -27 13 -41
3 -15 13 -32 22 -39 14 -10 14 -12 -1 -18 -27 -11 -22 -32 12 -52 30 -18 38
-37 20 -48 -15 -9 -12 -25 5 -25 23 0 65 -30 65 -46 0 -7 -17 -18 -37 -24 -51
-14 -67 -25 -60 -43 5 -13 20 -15 84 -10 44 3 85 12 94 19 8 8 25 14 36 14 27
0 141 121 149 158 3 15 12 43 19 62 8 19 17 53 20 75 l6 40 -59 18 c-32 9 -60
16 -62 16 -3 -1 -17 -4 -32 -6z"/>
</g>
</svg>
