<?xml version="1.0" standalone="no"?>
<!DOCTYPE svg PUBLIC "-//W3C//DTD SVG 20010904//EN"
 "http://www.w3.org/TR/2001/REC-SVG-20010904/DTD/svg10.dtd">
<svg version="1.0" xmlns="http://www.w3.org/2000/svg"
 width="117.000000pt" height="234.000000pt" viewBox="0 0 117.000000 234.000000"
 preserveAspectRatio="xMidYMid meet">
<metadata>
Created by potrace 1.10, written by Peter Selinger 2001-2011
</metadata>
<g transform="translate(0.000000,234.000000) scale(0.100000,-0.100000)"
fill="#000000" stroke="none">
<path d="M203 2329 c3 -15 -20 -27 -66 -34 -45 -7 -87 -46 -104 -96 -17 -46
-19 -873 -3 -915 34 -89 82 -96 611 -92 l396 3 36 25 c66 45 67 50 67 526 0
448 -1 458 -47 509 -27 30 -70 55 -93 55 -11 0 -23 7 -26 15 -5 13 -58 15
-390 15 -273 0 -383 -3 -381 -11z m872 -584 l0 -500 -500 0 -500 0 0 500 0
500 500 0 500 0 0 -500z"/>
<path d="M420 1990 c-130 -7 -147 -14 -165 -57 -20 -47 -21 -297 -2 -342 25
-58 41 -61 341 -61 200 1 277 4 294 13 44 25 52 58 52 217 0 163 -10 200 -58
218 -33 13 -319 20 -462 12z m411 -78 c36 -14 49 -57 49 -159 0 -96 -14 -134
-57 -152 -19 -7 -98 -10 -248 -7 l-219 4 -28 31 c-27 30 -28 36 -28 131 0 97
1 100 31 135 27 31 37 35 79 35 58 0 80 -7 80 -26 0 -8 10 -14 25 -14 13 0 40
-13 58 -30 19 -16 40 -30 46 -30 6 0 20 -5 30 -12 22 -13 51 -5 51 16 0 8 -9
17 -19 21 -11 3 -27 18 -36 32 -16 23 -16 28 -2 38 17 12 146 4 188 -13z"/>
<path d="M460 1850 c-18 -45 -7 -153 20 -188 30 -37 75 -55 103 -40 47 24 127
80 127 89 0 26 -126 -11 -146 -42 -3 -5 -20 -9 -39 -9 l-33 0 0 101 c1 108
-11 140 -32 89z"/>
<path d="M720 1765 c0 -14 5 -25 10 -25 6 0 10 11 10 25 0 14 -4 25 -10 25 -5
0 -10 -11 -10 -25z"/>
<path d="M299 813 c-56 -25 -69 -67 -69 -223 0 -158 13 -198 72 -223 55 -24
530 -25 580 -1 56 27 68 65 68 224 0 239 -1 240 -363 239 -210 0 -258 -3 -288
-16z m532 -143 c21 -43 12 -161 -13 -186 -19 -19 -93 -30 -102 -15 -11 17 5
81 20 81 19 0 36 37 29 60 -4 11 -13 20 -21 20 -8 0 -14 4 -14 9 0 5 -6 16
-14 24 -13 13 -12 17 4 34 14 16 26 19 57 14 31 -5 41 -13 54 -41z m-411 -55
c0 -60 3 -84 12 -83 17 4 22 -30 8 -47 -19 -23 -56 -18 -79 11 -25 32 -29 117
-7 169 12 27 21 35 40 35 26 0 26 -1 26 -85z m152 58 c9 -8 42 -25 74 -38 32
-13 60 -28 62 -33 4 -14 -26 -42 -45 -42 -21 0 -103 -41 -103 -52 0 -4 -13 -8
-28 -8 l-28 0 0 101 0 100 25 -6 c15 -4 33 -13 43 -22z"/>
</g>
</svg>
