<svg xmlns="http://www.w3.org/2000/svg" viewBox="0 0 700 440">
    <g id="ra_logo" class="">
    <g id="eye" class="">
        <ellipse id="eye-dot" class="" cx="350" cy="72" rx="12.9" ry="11.9"/>
        <path id="eye-circle" class="" d="M350 19.4c-35.9 0-65 24.3-65 54.2s29.1 54.2 65 54.2 65-24.3 65-54.2-29.1-54.2-65-54.2zm0 96.9c-28.3 0-51.3-19.1-51.3-42.7s23-42.7 51.3-42.7 51.3 19.1 51.3 42.7-23 42.7-51.3 42.7z"/>
    </g>
        <path id="ra" class="" d="M149.8 258l17.4-15.7s5.7-3.2 12-9.5l95.6-98.6s62.5 12.1 34.2 58.7l36 36 72.9-97.5L517 230s5.2 7.6 12.2 10.3l20.9 17.5h-30s-3.4-1.7-8.6-9.8l-90.1-88.5-73.7 97.7-63.5-62.3s31.8-25.7-3.6-41.2L186 249.9l-5.3 7.9h-30.9z"/>
    </g>

        <g id="sasa" class="">
                <path id="sasa-s1" class="" d="M158.4 296l-3.9-1.1c-11.4-3.2-14.6-5-14.6-7.4 0-3.1 6.2-5.3 16.4-5.3 9 0 13 1.6 15 2.5 2.9 1.3 3.6 2.9 3.6 3.4 0 .6.4.9 1.4.9 1.1 0 1.5-.4 1.5-1.5 0-4 .5-5.5.5-6.2 0-.4-.7-.5-1.9-.6-3.6-.4-9.4-.9-18.3-.9-19.2 0-31.9 4.1-31.9 9.7 0 4.2 5.2 7.8 20.4 12.2l6.3 1.9c11.5 3.3 13.5 5.7 13.5 8.2 0 2.7-6.1 5.9-18.5 5.9-8.6 0-16.7-1.4-19.7-5.2-.7-.9-1.2-2-1.2-2.6 0-.4-.1-.9-1.4-.9-1.1 0-1.5.6-1.6 1.3-.1.8-.7 3.9-.7 6.7 0 1.1.4 1.4 2.6 1.8 5.9 1 12.1 1.3 20.1 1.3 7.3 0 15-.5 21.9-2.1 9.9-2.4 13-6 13-9 .1-4.7-5.9-8.3-22.5-13z"/>
                <path id="sasa-a1" class="" d="M337.7 319.1c-1.5 0-3-.1-4.9-.2-2.4-.2-6.1-.9-11.2-5.6-8.4-7.9-30.3-29.1-33.4-32-1.3-1.2-1.9-1.7-3.9-1.7-1.3 0-2.4.6-3.9 2.1l-34.3 32.6c-2.7 2.6-4.9 4.2-10.9 4.6-1.2 0-2.7.1-3.9.1-1 0-1.5.2-1.5.5 0 .4.8.5 2.4.5 6.9 0 13.9-.2 15.2-.2 4.2 0 10.3.2 14.6.2 1.3 0 2.1-.7 2.1-1.1 0-.3-.3-1.1-1.9-1.1h-1.9c-4 0-5.2 0-5.2-.9 0-.6.6-1.6 1.9-2.9l7-6.9 3.3-3.5.1-.1 12.7-13c.1-.2.3-.5.8-.5.3 0 .4.3.6.5l12.4 13.1 3.6 3.6 10.2 10.6c.6.6-.3 1.1-1.2 1.2-1.4.1-1.7.2-1.7.5 0 .4 1.5.4 3.9.4 11 .1 20.6.1 25.2.1 4.9 0 5.7-.1 5.7-.5-.1-.2-.7-.4-1.9-.4z"/>
                <path id="sasa-s2" class="" d="M431.5 296l-3.9-1.1c-11.5-3.2-14.6-5-14.6-7.4 0-3.1 6.2-5.3 16.4-5.3 9 0 13 1.6 15 2.5 2.9 1.3 3.6 2.9 3.6 3.4 0 .6.4.9 1.4.9 1.1 0 1.5-.4 1.5-1.5 0-4 .6-5.5.6-6.2 0-.4-.7-.5-1.9-.6-3.6-.4-9.4-.9-18.4-.9-19.2 0-31.8 4.1-31.8 9.7 0 4.2 5.2 7.8 20.4 12.2l6.3 1.9c11.5 3.3 13.5 5.7 13.5 8.2 0 2.7-6.1 5.9-18.5 5.9-8.5 0-16.7-1.4-19.7-5.2-.7-.9-1.2-2-1.2-2.6 0-.4-.1-.9-1.4-.9-1.1 0-1.5.6-1.7 1.3-.1.8-.7 3.9-.7 6.7 0 1.1.4 1.4 2.6 1.8 5.9 1 12.1 1.3 20.1 1.3 7.3 0 15-.5 21.9-2.1 9.9-2.4 13-6 13-9 .1-4.7-5.8-8.3-22.5-13z"/>
                <path id="sasa-a2" class="" d="M610.9 319.1c-1.5 0-3-.1-4.9-.2-2.4-.2-6.1-.9-11.2-5.6-8.4-7.9-30.3-29.1-33.4-32-1.4-1.2-1.9-1.7-3.9-1.7-1.4 0-2.4.6-3.9 2.1l-34.3 32.6c-2.7 2.6-4.9 4.2-10.9 4.6-1.2 0-2.7.1-3.9.1-1 0-1.5.2-1.5.5 0 .4.8.5 2.4.5 6.9 0 13.9-.2 15.2-.2 4.2 0 10.3.2 14.6.2 1.4 0 2.1-.7 2.1-1.1 0-.3-.3-1.1-1.9-1.1h-1.9c-4 0-5.2 0-5.2-.9 0-.6.6-1.6 1.9-2.9l7-6.9 3.4-3.5.1-.1 12.7-13c.1-.2.3-.5.8-.5.3 0 .4.3.6.5l12.4 13.1 3.6 3.6 10.1 10.6c.6.6-.3 1.1-1.2 1.2-1.3.1-1.6.2-1.6.5 0 .4 1.5.4 3.9.4 11 .1 20.6.1 25.2.1 4.9 0 5.7-.1 5.7-.5-.2-.2-.8-.4-2-.4z"/>
        </g>
        <g id="hasid" class="">
            <path id="hasid-h" class="" d="M117 372.6c-.5 0-2-.1-2.8-.1-2-.2-2.3-.8-2.6-1.7-.3-1.3-.6-3.8-.6-6.9v-5.7c0-5 .2-5.9.4-6.9.2-1.1.6-1.6 2.3-1.8.8-.1 1.2-.1 1.6-.1.3 0 .6-.2.6-.3 0-.2-.3-.3-1.1-.3-1.9 0-5.9.1-6.3.1-.3 0-4.4-.1-7.2-.1-.7 0-1 .1-1 .3 0 .1.2.3.5.3.6 0 1.7 0 2.2.1 2.1.2 2.6.7 2.7 1.8.1 1 .3 2 .3 7v.7c0 .2-.5.1-.7.1H78.7c-.2 0-.7.1-.7-.1v-.7c0-5 .2-6 .2-7 .2-1.1.6-1.6 2.3-1.8.7-.1 1.2-.1 1.6-.1.2 0 .5-.2.5-.3 0-.2-.3-.3-1-.3-2 0-6 .1-6.3.1-.4 0-4.4-.1-7.3-.1-.7 0-1 .1-1 .3 0 .1.3.3.5.3.6 0 1.7 0 2.2.1 2.1.2 2.7.7 2.8 1.8.1 1 .4 1.9.4 6.9v5.7c0 3.1-.2 5.6-.6 6.9-.3.9-.5 1.5-1.8 1.7-.6.1-1.4.1-2 .1-.4 0-.5.2-.5.3 0 .2.3.3 1 .3 2 0 6-.1 6.4-.1.3 0 4.3.1 7.9.1.7 0 1-.1 1-.3 0-.1-.1-.3-.5-.3-.6 0-2-.1-2.9-.1-1.9-.2-2.3-.8-2.5-1.7-.3-1.3-.5-3.8-.5-6.9v-3.2c0-.2.5.3.7.3h26.6c.2 0 .7-.5.7-.3v3.2c0 3.1-.2 5.5-.5 6.8-.2.9-.5 1.6-1.8 1.7-.6.1-1.4.1-1.9.1-.4 0-.5.2-.5.3 0 .2.3.3 1 .3 1.9 0 6-.1 6.3-.1.4 0 4.4.1 7.9.1.7 0 1.1-.1 1.1-.3.1-.1-.1-.2-.5-.2z"/>
            <path id="hasid-a" class="" d="M244.9 372.6c-.6 0-1.5 0-2.4-.2-1.3-.2-3-.6-5.2-3.4-3.7-4.7-13.5-17.6-14.6-19-.6-.7-.8-1.1-1.5-1.1-.4 0-.7.2-1.5 1.2l-14.4 19.5c-1.2 1.6-2.4 2.7-5.1 2.9-.5 0-1.4.1-1.8.1-.3 0-.6.1-.6.3 0 .2.4.3 1.2.3 2.5 0 5.6-.1 6.2-.1.7 0 4 .1 5.5.1.6 0 .9-.4.9-.6 0-.1-.1-.6-.6-.6h-.6c-1 0-2.1.1-2.1-.5s.3-1.2.9-1.9l3.5-4.9 1.2-1.7 5.7-8.5c.3-.5.7-.5 1 0l6 8.6 1.2 1.7 5.5 7.2c.4.5-.2.8-.6.8-.3.1-.4.1-.4.2 0 .2 1 .2 2.2.2 4.2.1 8.7.1 9.6.1.7 0 1.4-.1 1.4-.3.2-.3-.2-.4-.6-.4z"/>
            <path id="hasid-s" class="" d="M353.8 359.3l-1.8-.6c-6.1-2.1-8-3.3-8-5.2 0-2.2 3.7-3.3 8.3-3.3 5.6 0 7.6 1.2 8 1.5.3.3.8 1.2.9 1.5.1.3.1.4.6.4s.5-.2.5-.7c0-2.1.3-3.1.3-3.3 0-.2-.1-.2-.6-.2s-1 0-2.2-.1c-1.5-.2-4-.4-6.4-.4-8.2 0-13.8 2.2-13.8 5.8 0 2.1 2.2 4 8.9 6.6l2.8 1.1c5.5 2.1 7.8 3.2 7.8 5.4 0 2.3-3.2 4.1-9.3 4.1-4.2 0-8.8-.8-9.8-3-.2-.4-.2-.9-.2-1.1 0-.3-.2-.4-.6-.4-.4 0-.5.2-.5.5-.1.5-.3 1.7-.3 3.3 0 .8.1.9.9 1.2 2.5.6 6.1.8 9 .8 3.4 0 7.3-.2 9.9-1.1 4.5-1.5 5.8-3.4 5.8-5.3 0-2.7-2.6-4.8-10.2-7.5z"/>
            <path id="hasid-i" class="" d="M485.6 372.8c-.6 0-1.9-.1-2.8-.1-1.8-.2-2.2-.8-2.4-1.7-.3-1.3-.4-3.9-.4-7v-5.7c0-5 .2-5.9.2-7 .1-1.1.6-1.6 2.2-1.8.7-.1 1.2-.1 1.6-.1.2 0 .5-.2.5-.3 0-.2-.3-.3-1-.3-1.9 0-5.8.1-6.1.1-.3 0-4.2-.1-6.2-.1-.7 0-1 .1-1 .3 0 .1.2.3.5.3.4 0 1.2 0 1.9.1 1.3.2 1.9.6 2.1 1.7.1 1 .3 1.9.3 7v5.7c0 3.1-.2 5.7-.5 7-.2 1-.5 1.6-1.6 1.7-.6.1-1.3.1-1.9.1-.3 0-.5.2-.5.3 0 .2.3.3 1 .3 1.9 0 5.7-.1 6-.1.3 0 4.2.1 7.6.1.7 0 1-.1 1-.3 0 0-.2-.2-.5-.2z"/>
            <path id="hasid-d" class="" d="M626.8 352.6c-7.4-4-18.9-3.7-25.2-3.7-3.7 0-7.7.1-8.4.1-.4 0-4.4-.1-7.3-.1-.7 0-1 .1-1 .3 0 .1.3.3.5.3.6 0 1.6 0 2.1.1 2.1.1 2.3.7 2.5 1.8.1 1 0 1.9 0 6.9v5.7c0 3.1.1 5.6-.2 6.9-.3.9-.4 1.5-1.6 1.7-.6.1-1.3.1-1.9.1-.4 0-.5.2-.5.3 0 .2.4.3 1 .3 1 0 2.5 0 3.8-.1h2.6c.3 0 2.4.1 5.1.2 2.7.1 6.1.2 8.8.2 10.7 0 16.3-2.2 19.1-3.7 3.5-1.9 6.8-5 6.8-9-.1-4-3.1-6.6-6.2-8.3zm-5 16.7c-3.8 1.9-8.9 2.9-14.7 2.9-7.4 0-9.6-.7-10.4-1.3-.5-.3-.6-1.5-.7-2.3-.1-.6 0-3.6 0-7V351c0-.4.2-.5.7-.6.6-.1 2.6-.2 3.8-.2 7.5 0 14.4.4 20.3 3.6 2.6 1.4 5.9 4 5.9 8 .1 2.9-1.6 5.9-4.9 7.5z"/>

  </g>


        <g id="emissary" class="">
            <path id="emis-e1" class="" d="M31.3 417.5c-.2 0-.2.1-.3.3-.2.9-.4 1.4-1.1 1.6-.6.3-1.6.3-2.2.3-2.4 0-2.7-.3-2.8-1.9v-5.2c0-.1 0-.2.1-.2.6 0 2.9 0 3.3.1.9.1 1.2.4 1.3.9.1.3.1.6.1.8 0 .1 0 .2.2.2s.2-.2.2-.4.1-1 .1-1.5c.1-1.1.2-1.5.2-1.6s-.1-.2-.2-.2-.2.1-.4.3c-.2.2-.6.3-1.1.3-.5.1-3.2.1-3.7.1-.1 0-.2-.1-.2-.3v-5.6c0-.2.1-.2.2-.2.5 0 2.9.1 3.3.1 1.2.1 1.4.4 1.6.8.1.3.1.6.1.8 0 .2.1.3.2.3.2 0 .2-.1.2-.2 0-.3.1-1.2.1-1.5.1-1 .2-1.3.2-1.4 0-.1 0-.2-.1-.2s-.2.1-.4.1-.6.1-1 .1H20c-.3 0-.5 0-.5.2s.1.2.4.2c.3 0 .7 0 .9.1.8.2.9.5 1 1.3v8.6c0 2 0 3.8-.1 4.7-.1.6-.2 1.1-.7 1.2-.2 0-.5.1-.8.1-.3 0-.4.1-.4.2 0 .2.2.2.5.2H23.2c.7 0 1.4 0 2.4.1 1 0 2.3.1 4 .1.9 0 1.1 0 1.3-.6.1-.5.3-2 .3-2.5.3-.4.3-.6.1-.6z"/>
            <path id="emis-m1" class="" d="M67.3 420.5c-.3 0-.6 0-1.2-.2s-.8-.7-1-1.8l-1.9-11.6c-.1-.4-.3-.6-.5-.6s-.4.2-.5.5l-5.5 10.5-5.5-10.4c-.3-.5-.4-.6-.6-.6-.2 0-.3.2-.4.5l-2 12.2c-.1.6-.3 1.4-.8 1.4h-.6c-.2 0-.3.1-.3.2 0 .2.2.2.4.2.6 0 1.6-.1 2-.1.4 0 1.3.1 2.2.1.3 0 .5 0 .5-.2 0-.1-.1-.2-.3-.2s-.4 0-.7-.1c-.4-.1-.6-.2-.6-.6 0-.3 0-.4.1-.7l1-7.1H51c.7 1 1.9 3.4 2 3.8.2.5 1.9 3.3 2.4 4.2.3.6.6.9.8.9.2 0 .3-.4.8-1.3l4.4-8.6h.1l1.1 8.3c.1.5 0 .9-.1.9s-.2.2-.2.3c0 .1.1.2.6.2.8 0 3.7.1 4.2.1.3 0 .5-.1.5-.2.1.1-.1 0-.3 0z"/>
            <path id="emis-i1" class="" d="M89 420.5c-.3 0-.8 0-1-.1-.6-.1-.8-.4-.8-.9-.1-.8-.1-2.3-.1-4.1v-3.3c0-2.8 0-3.4.1-4 0-.7.2-.9.8-1 .2 0 .4-.1.6-.1.2 0 .3 0 .3-.2 0-.1-.2-.2-.4-.2H83.2c-.3 0-.5 0-.5.2s.1.2.3.2c.3 0 .5 0 .7.1.4.1.5.3.6 1 0 .6-.1 1.1-.1 4v3.3c0 1.8.1 3.3 0 4.1-.1.6-.1.8-.5.9-.2 0-.4.1-.7.1-.3 0-.3.1-.3.2s.1.2.4.2c.8 0 2.2-.1 2.7-.1.6 0 2 .1 3.3.1.2 0 .4-.1.4-.2-.2-.1-.3-.2-.5-.2z"/>
            <path id="emis-s1" class="" d="M111.1 412.3l-.8-.4c-1.8-1-2.2-1.6-2.2-2.5 0-1.3 1.3-2 2.8-2 1.3 0 2 .5 2.3.9.4.5.5 1.1.5 1.2 0 .2.1.3.2.3.2 0 .3-.2.3-.6 0-1.5.1-2 .1-2.3 0-.1-.1-.2-.3-.2-.5-.1-1.6-.3-2.9-.3-2.8 0-5.2 1.5-5.2 3.8 0 1.7.8 2.9 3.2 4.3l1.2.7c1.8 1 2 1.8 2 2.7 0 1.3-1.1 2.4-2.8 2.4-1.3 0-2.8-.5-3.3-1.9-.1-.3-.2-.7-.2-1 0-.1 0-.3-.2-.3s-.3.2-.3.5-.1 1.5-.1 2.5c0 .4.1.5.4.6.9.4 2.1.5 3.3.5 1.1 0 2.4-.1 3.4-.8 1.5-1 2-2.1 2-3.5.2-1.8-.7-3.2-3.4-4.6z"/>
            <path id="emis-s2" class="" d="M137 412.3l-.8-.4c-1.8-1-2.2-1.6-2.2-2.5 0-1.3 1.3-2 2.8-2 1.3 0 2 .5 2.3.9.4.5.5 1.1.5 1.2 0 .2.1.3.2.3.2 0 .3-.2.3-.6 0-1.5.1-2 .1-2.3 0-.1-.1-.2-.3-.2-.5-.1-1.6-.3-2.9-.3-2.8 0-5.2 1.5-5.2 3.8 0 1.7.8 2.9 3.2 4.3l1.2.7c1.8 1 2 1.8 2 2.7 0 1.3-1.1 2.4-2.8 2.4-1.3 0-2.8-.5-3.3-1.9-.1-.3-.2-.7-.2-1 0-.1 0-.3-.2-.3s-.3.2-.3.5-.1 1.5-.1 2.5c0 .4.1.5.4.6.9.4 2.1.5 3.3.5 1.1 0 2.4-.1 3.4-.8 1.5-1 2-2.1 2-3.5.1-1.8-.7-3.2-3.4-4.6z"/>
            <path id="emis-a1" class="" d="M170.4 420.5c-.2 0-.5 0-.8-.1-.4-.1-1-.4-1.8-2.1-1.3-2.9-4.5-10.6-5-11.6-.2-.4-.3-.6-.5-.6s-.3.2-.6.8l-5.1 11.9c-.4 1-.8 1.6-1.7 1.7h-.6c-.2 0-.2 0-.2.2s.1.2.4.2h2.4c.6 0 1.5.1 2.1.1.2 0 .3.1.3-.1 0-.1-.1.1-.3.1h-.3c-.6 0-.8-.5-.8-.9 0-.2.1-1 .3-1.4l1.6-3.9 1.9-4.6c0-.1.1-.2.1-.2.1 0 .1.1.1.1l1.8 4.6s.4 1.1.5 1.2l1.6 4.1c.1.2 0 .4-.2.4s-.3.1-.3.2.2.1.6.2h3.8c.7 0 .9 0 .9-.2 0 0-.1-.1-.2-.1z"/>
          <path id="emis-r1" class="" d="M200.6 420.5h-.5c-.3-.1-1-.2-2.2-1.2-1.2-1.2-2.7-2.9-4.5-5 2-1.5 2.8-2.8 2.8-4.2 0-1.3-.9-2.2-1.4-2.6-1.1-.7-2.6-.8-3.9-.8h-6c-.3 0-.5 0-.5.2 0 .1.1.2.3.2.3 0 .7 0 .8.1.7.2 1.1.4 1.1 1s.2 1.1.2 4v3.3c0 1.7-.2 3.2-.3 4-.1.5-.3.9-.7 1-.2 0-.5.1-.8.1-.3 0-.4.1-.4.2s.1.2.4.2c.8 0 2.1-.1 2.5-.1.3 0 2 .1 3.2.1.3 0 .4-.1.4-.2s-.1-.2-.3-.2c-.3 0-.7 0-1-.1-.6-.1-.8-.4-.9-1-.1-.8-.2-2.3-.2-4v-.3c0-.1.2-.2.3-.2h1.9c.1 0 .3 0 .4.1.3.3 1.1 1.5 1.9 2.6 1.1 1.5 1.9 2.4 2.8 2.8.5.3 1.1.4 2.2.4h2c.3 0 .4-.1.4-.3.2 0 .2-.1 0-.1zm-8.2-6.7c-.3.2-.6.3-1.4.3-.5 0-1.2 0-1.6-.2-.1-.1-.3-.1-.3-.3V408c0-.1.1-.2.3-.3.2-.1.7-.1 1.2-.1 1.2 0 3.1.7 3.1 3.3 0 1.6-.7 2.4-1.3 2.9z"/>
            <path id="emis-y1" class="" d="M226.5 406.7h-4.2c-.2 0-.3 0-.3.2s.2.2.4.2c.3.1.5.3.5.4 0 .3-.1.6-.3 1-.3.6-2.8 4.6-3 5-.3-.5-3-4.9-3.4-5.5-.2-.3-.3-.5-.3-.7 0-.2.1-.2.3-.3.3-.1.5-.1.5-.3 0-.1-.1-.2-.3-.2h-4.9c-.3 0-.4 0-.4.2 0 .1.1.2.3.2.3 0 .6.1.9.3.4.2.8.6 1.3 1.3.7 1 3.7 5.1 3.9 5.4.3.6.7.9.7 2v1.5c0 .3-.2 1.1-.3 1.9-.1.5-.3.9-.7 1-.2 0-.5.1-.8.1-.2 0-.4.1-.4.2 0 .2.2.2.4.2.8 0 2.1-.1 2.6-.1.6 0 1.9.1 3.2.1.3 0 .4-.1.4-.2s-.1-.2-.3-.2c-.3 0-.7 0-1-.1-.6-.1-.9-.4-1-1 0-.8-.2-1.6-.2-1.9V416c0-.6.1-1.2.4-1.9.4-.8 3.4-5.3 4-6 .4-.5.7-.7 1.1-.9.3-.1.7-.2.9-.2.2 0 .4-.1.4-.2-.1-.1-.2-.1-.4-.1z"/>
            <path id="emis-o1" class="" d="M268.9 406.4c-6.2 0-8.6 4.2-8.6 7.4 0 3.3 2.4 7.4 8.4 7.4 5.3 0 8.6-3.4 8.6-7.7s-3.3-7.1-8.4-7.1zm.6 13.7c-3.9 0-6.2-3-6.2-6.9 0-4.6 2.7-5.8 5-5.8 3.3 0 5.9 2.6 5.9 6.7 0 5.4-3.3 6-4.7 6z"/>
            <path id="emis-f1" class="" d="M302.6 406.5c-.1 0-.2.1-.3.1-.2 0-.5.1-.8.1h-8.7c-.3 0-.5 0-.5.2 0 .1.2.2.4.2.3 0 .6 0 .8.1.6.2.7.4.7 1s-.1 1.1-.1 4v3.3c0 1.8.2 3.2.1 4-.1.5-.1.9-.5 1-.2 0-.4.1-.7.1-.2 0-.3.1-.3.2 0 .2.1.2.4.2.8 0 2.1-.1 2.6-.1s2 .1 3.3.1c.3 0 .4-.1.4-.2s-.1-.2-.3-.2c-.3 0-.7 0-1-.1-.6-.1-.8-.4-.8-1-.1-.8-.1-2.1-.1-3.9v-1.5c0-.1.1-.2.2-.2.3 0 2.8 0 3.3.1.6 0 .9.4 1 .7.1.2.1.4.1.6 0 .1.1.3.2.3.2 0 .2-.3.2-.4 0-.1 0-1 .1-1.4.1-.6.2-1.1.2-1.2s0-.2-.1-.2-.2.1-.3.2c-.2.2-.5.3-.9.3h-3.8c-.1 0-.2-.1-.2-.2V408c0-.2.1-.3.2-.3l3.4.1c.8 0 1.2.3 1.3.6.1.3.1.6.1.7 0 .2.1.3.3.3s.2-.2.2-.4.1-1.3.1-1.5c.1-.5.2-.7.2-.8-.2-.1-.3-.2-.4-.2z"/>
            <path id="emis-t1" class="" d="M351.8 406.5c-.1 0-.2.2-.6.2-.3 0-.8.2-1.4.2h-8.3c-.7 0-1.4-.2-2-.2-.5-.1-.7-.3-.9-.3-.1 0-.2.1-.2.3 0 .1-.4 1.9-.4 2.3 0 .2.1.3.2.3s.2-.1.2-.2.1-.4.3-.6c.3-.4.9-.6 2.1-.6l3.2-.1v7.6c0 1.7-.1 3.2-.2 4-.1.5-.3.9-.7 1-.2 0-.5.1-.8.1-.3 0-.3.1-.3.2s.1.2.4.2c.8 0 2.2-.1 2.7-.1.6 0 2 .1 3.3.1.2 0 .4-.1.4-.2s-.1-.2-.3-.2c-.3 0-.8 0-1-.1-.6-.1-.9-.4-1-1-.1-.8-.3-2.3-.3-4v-7.6h2.8c1.8 0 2.5.6 2.5 1.1l.1.2c0 .3.1.4.3.4.1 0 .2-.1.2-.3 0-.5.1-1.9.1-2.3-.3-.3-.3-.4-.4-.4z"/>
            <path id="emis-h1" class="" d="M384.4 420.5c-.3 0-.8 0-1-.1-.6-.1-.9-.4-1-1-.1-.8-.3-2.3-.3-4v-3.3c0-2.8.2-3.4.3-4 0-.7.3-.9.8-1 .3 0 .5-.1.7-.1.2 0 .4-.1.4-.2s-.1-.2-.4-.2h-5.7c-.3 0-.4 0-.4.2 0 .1.1.2.4.2.3 0 .6 0 .8.1.7.2 1 .4 1 1s.2 1.3.2 4.1v.4c0 .1-.4.4-.5.4H372c-.1 0 .2-.2.2-.4v-.4c0-2.9-.1-3.5-.1-4.1 0-.7.1-.9.7-1 .2 0 .4-.1.5-.1.3 0 .4-.1.4-.2s-.1-.2-.4-.2h-5.7c-.3 0-.5 0-.5.2 0 .1.1.2.3.2.3 0 .6 0 .8.1.7.2.9.4.9 1v7.3c0 1.7 0 3.2-.1 4-.1.5-.2.9-.6 1-.2 0-.4.1-.7.1-.3 0-.3.1-.3.2s.1.2.4.2c.8 0 2.2-.1 2.6-.1.6 0 2 .1 3.3.1.3 0 .4-.1.4-.2s-.1-.2-.3-.2c-.3 0-.8 0-1.1-.1-.6-.1-.6-.4-.6-1-.1-.8 0-2.3 0-4V414c0-.1-.2 0-.2 0h8.2v1.4c0 1.7-.2 3.2-.3 4-.1.5-.3.9-.7 1-.2 0-.5.1-.8.1-.2 0-.4.1-.4.2s.2.2.4.2c.8 0 2.2-.1 2.7-.1.6 0 1.9.1 3.2.1.3 0 .4-.1.4-.2.1-.1 0-.2-.2-.2z"/>
            <path id="emis-e2" class="" d="M410.9 417.9c-.1 0-.2.1-.2.3-.1.8-.4 1.2-.9 1.4-.5.2-1.4.3-1.9.3-2.1 0-2.8-.3-2.8-1.6 0-.6-.1-2.2-.1-2.8V414c0-.1.1-.2.2-.2.5 0 2.9.1 3.2.1.8.1 1 .3 1.1.7 0 .2.1.5.1.7 0 .1.1.2.2.2.2 0 .2-.3.2-.4 0-.1.1-.9.1-1.3.1-1 .2-1.3.2-1.4 0-.1-.1-.2-.2-.2s-.2.1-.3.2c-.2.2-.5.3-1 .3-.5.1-3.2.1-3.6.1-.1 0-.2-.1-.2-.2V408c0-.1.1-.2.2-.2.4 0 2.9 0 3.2.1 1 .1 1.2.4 1.4.7.1.2.1.6.1.7 0 .1 0 .2.2.2s.2-.2.2-.3c0-.2.1-1 .1-1.2 0-.9.2-1.1.2-1.2 0-.1 0-.2-.1-.2s-.2.1-.3.1c-.2 0-.5.1-.9.1h-8.6c-.3 0-.5 0-.5.2 0 .1.1.2.4.2.3 0 .6 0 .8.1.6.2.7.4.7 1s-.2 1.1-.2 4v3.3c0 1.7.2 3.2.1 4-.1.5-.1.9-.5 1-.2 0-.4.1-.7.1-.3 0-.3.1-.3.2s.2.2.4.2h5c1 .1 2.2.1 3.8.1.8 0 1 0 1.1-.5.1-.4.3-1.7.3-2.1 0-.5 0-.7-.2-.7z"/>
            <path id="emis-r2" class="" d="M465.4 420.5c-.2 0-.4 0-.6-.1-.4-.1-1.3-.2-2.6-1.5-1.4-1.4-3-3.3-5-5.8 2.3-1.8 3.1-3.3 3.1-4.9 0-1.5-.9-2.6-1.6-3-1.3-.8-2.8-1-4.3-1-.7 0-2.5.1-3.3.1-.5 0-2-.1-3.2-.1-.3 0-.5 0-.5.2s.1.2.4.2c.3 0 .7 0 .9.1.8.2 1.1.5 1.1 1.3.1.7.2 1.3.2 4.7v3.9c0 2-.1 3.8-.3 4.7-.1.6-.3 1.1-.8 1.2-.2 0-.5.1-.9.1-.3 0-.4.1-.4.2 0 .2.2.2.5.2.9 0 2.4-.1 2.8-.1.3 0 2.1.1 3.4.1.3 0 .5-.1.5-.2s-.1-.2-.3-.2c-.3 0-.8 0-1.1-.1-.7-.1-1.1-.6-1.1-1.2-.1-.9-.3-2.7-.3-4.7v-.3c0-.1.3-.2.4-.2h2.1c.2 0 .4 0 .5.2.3.3 1.4 1.8 2.3 3.1 1.3 1.7 2.2 2.8 3.2 3.3.6.3 1.2.5 2.5.5h2.2c.3 0 .4-.1.4-.3.1-.3 0-.4-.2-.4zm-9.3-7.9c-.4.3-.7.4-1.7.4-.6 0-1.5-.1-2-.2-.2-.1-.4-.1-.4-.4v-6.7c0-.2.3-.3.4-.3.2-.1.8-.1 1.4-.1 1.4 0 3.6.9 3.6 4 0 1.7-.6 2.8-1.3 3.3z"/>
          <path id="emis-a2" class="" d="M494.1 420.5c-.3 0-.6 0-1-.1-.5-.1-1.2-.4-2-2.4-1.5-3.4-5.2-12.2-5.8-13.4-.2-.5-.4-.7-.6-.7-.2 0-.4.2-.7.9l-5.8 13.7c-.5 1.1-.9 1.9-2 2h-.7c-.2 0-.3.1-.3.2 0 .2.1.2.4.2h2.7c.7 0 1.7.1 2.5.1.3 0 .4.1.4-.1 0-.1-.1.1-.3.1h-.3c-.7 0-.9-.6-.9-1 0-.3.1-1.1.3-1.6l1.8-4.5 2.1-5.3c0-.1.1-.2.1-.2.1 0 .1.1.1.2l2.1 5.3s.5 1.2.6 1.3l1.9 4.8c.1.3 0 .5-.2.5s-.3.1-.3.2c0 .2.3.2.7.2h4.4c.9 0 1.1 0 1.1-.2s-.2-.2-.3-.2z"/>
            <path id="emis-e3" class="" d="M539.5 417.5c-.2 0-.2.1-.3.3-.2.9-.4 1.4-1 1.6-.6.3-1.6.3-2.2.3-2.4 0-2.8-.3-2.9-1.9 0-.6-.1-2.7-.1-3.4v-1.8c0-.1.1-.2.2-.2.6 0 2.9 0 3.4.1.9.1 1.2.4 1.3.9.1.3.1.6.1.8 0 .1.1.2.2.2.2 0 .2-.2.2-.4s.1-1 .1-1.5c.1-1.1.2-1.5.2-1.6s-.1-.2-.2-.2-.2.1-.4.3c-.2.2-.6.3-1.1.3-.5.1-3.3.1-3.8.1-.1 0-.3-.1-.3-.3v-5.6c0-.2.2-.2.3-.2.5 0 3 .1 3.4.1 1.2.1 1.4.4 1.6.8.1.3.1.6.1.8 0 .2.1.3.2.3.2 0 .2-.1.2-.2 0-.3.1-1.2.1-1.5.1-1 .2-1.3.2-1.4 0-.1 0-.2-.1-.2s-.3.1-.4.1c-.2 0-.6.1-1 .1h-9.2c-.4 0-.5 0-.5.2s.1.2.4.2c.3 0 .7 0 .9.1.8.2.8.5.9 1.3 0 .7-.1 1.3-.1 4.7v3.9c0 2 .1 3.8 0 4.7-.1.6-.1 1.1-.6 1.2-.2 0-.4.1-.8.1-.3 0-.4.1-.4.2 0 .2.2.2.5.2H531.5c.7 0 1.4 0 2.4.1 1 0 2.3.1 4 .1.9 0 1.1 0 1.3-.6.1-.5.3-2 .3-2.5.2-.4.2-.6 0-.6z"/>
            <path id="emis-m2" class="" d="M575.5 420.5c-.3 0-.6 0-1.2-.2s-.8-.7-1-1.8l-1.9-11.6c-.1-.4-.3-.6-.5-.6s-.4.2-.5.5l-5.5 10.5-5.5-10.4c-.3-.5-.4-.6-.6-.6-.2 0-.3.2-.4.5l-2 12.2c-.1.6-.3 1.4-.8 1.4h-.6c-.2 0-.3.1-.3.2 0 .2.2.2.4.2.7 0 1.6-.1 2-.1.4 0 1.3.1 2.2.1.3 0 .5 0 .5-.2 0-.1-.1-.2-.3-.2-.2 0-.4 0-.7-.1-.3-.1-.6-.2-.6-.6 0-.3 0-.4.1-.7l1-7.1h.1c.7 1 1.9 3.4 2 3.8.2.5 1.9 3.3 2.3 4.2.3.6.6.9.8.9.2 0 .4-.4.8-1.3l4.4-8.6h.1l1.1 8.3c.1.5 0 .9-.1.9s-.2.2-.2.3c0 .1.1.2.6.2.8 0 3.7.1 4.2.1.3 0 .5-.1.5-.2 0 .1-.2 0-.4 0z"/>
            <path id="emis-p1" class="" d="M596.7 414.1c-.4 0-.7.1-.7.2s.1.2.3.2h.6c2.9 0 5.1-1.9 5.1-4.5 0-1-.6-1.8-1-2.3-.3-.3-1.3-1.1-3.8-1.1h-6.4c-.3 0-.5 0-.5.2 0 .1.1.2.4.2.3 0 .6 0 .8.1.6.2.6.4.6 1s-.2 1.1-.2 4v3.3c0 1.7.2 3.2.1 4-.1.5-.1.9-.5 1-.2 0-.4.1-.7.1-.3 0-.3.1-.3.2s.2.2.4.2c.8 0 2.1-.1 2.6-.1s2 .1 3.4.1c.2 0 .4-.1.4-.2s-.1-.2-.3-.2c-.3 0-.7 0-1-.1-.6-.1-.8-.4-.9-1-.1-.8-.2-2.3-.2-4V408c0-.2.1-.3.3-.3.2-.1.6-.1.9-.1.5 0 1.3.1 2.1.7 1.1.9 1.2 2.2 1.2 2.8.1 1.8-1.5 3-2.7 3z"/>
            <path id="emis-i2" class="" d="M624.3 420.5c-.3 0-.8 0-1-.1-.6-.1-.9-.4-1-.9-.1-.8-.3-2.3-.3-4.1v-3.3c0-2.8.2-3.4.2-4 .1-.7.3-.9.9-1 .2 0 .4-.1.6-.1.2 0 .4 0 .4-.2 0-.1-.2-.2-.4-.2H618.4c-.3 0-.5 0-.5.2s.1.2.3.2c.3 0 .5 0 .7.1.4.1.9.3.9 1 0 .6.2 1.1.2 4v3.3c0 1.8-.2 3.3-.3 4.1-.1.6-.3.8-.7.9-.2 0-.5.1-.8.1-.3 0-.3.1-.3.2s.1.2.4.2c.8 0 2.2-.1 2.7-.1s1.9.1 3.3.1c.2 0 .4-.1.4-.2-.1-.1-.2-.2-.4-.2z"/>
            <path id="emis-r3" class="" d="M656.3 420.5h-.5c-.3-.1-1-.2-2.2-1.2-1.2-1.2-2.7-2.9-4.5-5 2-1.5 2.8-2.8 2.8-4.2 0-1.3-.9-2.2-1.4-2.6-1.1-.7-2.6-.8-3.9-.8h-6c-.3 0-.5 0-.5.2 0 .1.1.2.3.2.3 0 .7 0 .8.1.7.2.7.4.7 1s-.1 1.1-.1 4v3.3c0 1.7.2 3.2.1 4-.1.5-.1.9-.5 1-.2 0-.4.1-.7.1-.3 0-.3.1-.3.2s.1.2.4.2c.8 0 2.1-.1 2.5-.1.3 0 2 .1 3.2.1.3 0 .4-.1.4-.2s-.1-.2-.2-.2c-.3 0-.7 0-1-.1-.6-.1-.7-.4-.7-1-.1-.8-.1-2.3-.1-4v-.3c0-.1 0-.2.1-.2h1.8c.1 0 .3 0 .4.1.3.3 1.1 1.5 1.9 2.6 1.1 1.5 1.9 2.4 2.8 2.8.5.3 1.1.4 2.2.4h2c.3 0 .4-.1.4-.3.1 0 0-.1-.2-.1zm-8.2-6.7c-.3.2-.6.3-1.4.3-.5 0-1.1 0-1.5-.2-.1-.1-.2-.1-.2-.3V408c0-.1 0-.2.2-.3.2-.1.7-.1 1.2-.1 1.2 0 3.1.7 3.1 3.3-.1 1.6-.8 2.4-1.4 2.9z"/>
            <path id="emis-e4" class="" d="M680.1 417.9c-.1 0-.2.1-.2.3-.1.8-.4 1.2-.9 1.4-.5.2-1.4.3-1.9.3-2.1 0-2.9-.3-2.9-1.6 0-.6-.1-2.2-.1-2.8V414c0-.1.2-.2.2-.2.5 0 2.9.1 3.3.1.8.1 1.1.3 1.2.7.1.2.1.5.1.7 0 .1.1.2.2.2.2 0 .2-.3.2-.4 0-.1 0-.9.1-1.3.1-1 .2-1.3.2-1.4 0-.1-.1-.2-.2-.2s-.2.1-.3.2c-.2.2-.5.3-1 .3-.5.1-3.3.1-3.7.1-.1 0-.3-.1-.3-.2V408c0-.1.2-.2.3-.2.4 0 2.9 0 3.3.1 1 .1 1.2.4 1.4.7.1.2.2.6.2.7 0 .1 0 .2.2.2s.2-.2.2-.3c0-.2.1-1 .1-1.2 0-.9.2-1.1.2-1.2 0-.1 0-.2-.1-.2s-.2.1-.3.1c-.2 0-.5.1-.9.1h-8.6c-.3 0-.5 0-.5.2 0 .1.1.2.3.2.3 0 .7 0 .8.1.7.2 1.1.4 1.1 1s.3 1.1.3 4v3.3c0 1.7-.2 3.2-.3 4-.1.5-.3.9-.7 1-.2 0-.5.1-.8.1-.3 0-.4.1-.4.2s.1.2.4.2h5c1 .1 2.2.1 3.8.1.8 0 .9 0 1.1-.5.1-.4.3-1.7.3-2.1-.2-.5-.3-.7-.4-.7z"/>
        </g>
</svg>
