<svg id="hcLogo_svg" class="" xmlns="http://www.w3.org/2000/svg" viewBox="0 0 500 300">
    <g id="hcTxt" class="">
            <path id="hcTxt-h1" class="" d="M54.5 49.2c-.8 0-1.8 0-2.4-.2-1.5-.2-1.7-1.1-1.9-2.4-.2-2-.2-5.6-.2-9.8v-8.1c0-7 0-8.3.1-9.7.1-1.6.5-2.3 1.7-2.5.6-.1 1-.2 1.4-.2.5 0 .9-.2.9-.5s-.3-.4-1-.4c-1.8 0-5 .1-6.1.1-1.2 0-4.6-.1-7.1-.1-.7 0-1 .1-1 .4 0 .3.3.5.8.5.6 0 1.5 0 1.8.2 1.5.4 2.1.9 2.3 2.5.1 1.5.3 3.1.3 10.1v1c0 .3-.6-.1-.7-.1h-18c-.2 0-.4.4-.4.1v-1c0-7 0-8.6.1-10.1.1-1.6.5-2.3 1.8-2.5.5-.1 1-.2 1.4-.2.6 0 .9-.2.9-.5s-.3-.4-1-.4c-1.9 0-5.2.1-6.3.1-1.3 0-4.4-.1-6.9-.1-.7 0-1 .1-1 .4 0 .3.3.5.8.5.7 0 1.5 0 1.9.2 1.5.4 2.1.9 2.2 2.5 0 1.5.2 2.8.2 9.7v8.1c0 4.2-.1 7.8-.3 9.8-.2 1.3-.5 2.2-1.5 2.4-.4.1-1 .2-1.7.2-.6 0-.8.3-.8.5 0 .3.3.5.9.5 1.9 0 5-.2 6.1-.2 1.3 0 4.6.2 7.7.2.6 0 1-.2 1-.5 0-.2-.2-.5-.8-.5-.7 0-1.8 0-2.4-.2-1.4-.2-1.7-1.1-1.9-2.4-.2-2-.3-5.5-.3-9.7v-3.5c0-.2.3-.5.4-.5h17.9c.1 0 .7.3.7.5V37c0 4.2-.2 7.7-.4 9.7-.2 1.3-.5 2.2-1.5 2.4-.4.1-1 .2-1.8.2-.5 0-.8.3-.8.5 0 .3.4.5 1 .5 1.8 0 5.2-.2 6.2-.2 1.3 0 4.4.2 7.5.2.6 0 1-.2 1-.5-.1-.3-.3-.6-.8-.6z"/>
            <path id="hcTxt-e1" class="" d="M105.3 43c-.3 0-.4.2-.5.7-.3 1.9-.9 2.9-2 3.4-1.2.5-3.2.6-4.5.6-4.9 0-6.2-.7-6.3-3.8-.2-1.4 0-5.3 0-6.9v-3.7c0-.3-.1-.5.2-.5 1.2 0 6.5.1 7.4.2 1.8.2 2.3.9 2.6 1.8.1.6.1 1.2.1 1.7 0 .2.1.4.4.4.4 0 .5-.7.5-1 0-.3.1-2.1.2-3.1.3-2.3.4-3.1.4-3.3 0-.3-.2-.5-.4-.5s-.4.3-.8.6c-.5.4-1.1.6-2.3.7-1.1.1-7.1.1-8.2.1-.3 0-.2-.2-.2-.5V18.6c0-.3 0-.4.2-.4 1 0 6.6.1 7.4.2 2.4.2 2.7.9 3.1 1.7.3.5.3 1.3.3 1.7 0 .4.1.6.4.6.4 0 .5-.5.5-.8.1-.5.2-2.5.3-3 .1-2.1.4-2.6.4-3 0-.2-.1-.4-.3-.4-.2 0-.5.2-.8.2-.4 0-1.1.2-2 .3H88.5c-1.3 0-4.4-.1-6.9-.1-.7 0-1.1.1-1.1.4 0 .3.3.5.8.5.7 0 1.5 0 1.9.2 1.5.4 1.7.9 1.8 2.5 0 1.5-.2 2.8-.2 9.7V37c0 4.2.2 7.8 0 9.8-.2 1.3-.3 2.2-1.3 2.4-.4.1-.9.2-1.6.2-.6 0-.7.3-.7.5 0 .3.3.5.9.5 1 0 2.2-.1 3.3-.1h2.7c1.4 0 3.2 0 5.5.1s5.2.2 8.7.2c1.8 0 2.2 0 2.5-1.2.3-.9.7-4 .7-5.1.2-.7.2-1.3-.2-1.3z"/>
            <path id="hcTxt-a1" class="" d="M163.6 49.2c-.5 0-1.1 0-1.8-.2-.9-.2-2.2-.8-4-4.9-3-7-10.9-25.5-12.1-28-.5-1-.7-1.5-1.4-1.5-.5 0-.9.5-1.4 1.8L130.5 45c-1 2.3-1.8 3.7-3.9 4h-1.4c-.4 0-.5.2-.5.5 0 .4.3.5.9.5 2.5 0 5-.2 5.5-.2 1.5 0 3.7.2 5.3.2.5 0 .8-.2.8-.6 0-.3-.1-.6-.7-.6h-.7c-1.5 0-1.9-.4-1.9-1.2 0-.5.2-1.6.7-2.8l2.5-6.2c0-.1.1-.1.1-.2l1.1-2.9 4.6-11.4c0-.2.1-.4.3-.4.1 0 .2.3.2.4l4.5 11.5 1.1 2.9c.1 0 .1.1.2.2l3.7 9.3c.2.5-.1 1-.4 1-.5.1-.6.2-.6.5s.5.3 1.4.4c4 .1 7.4.1 9.1.1 1.8 0 2-.1 2-.5-.1-.1-.4-.3-.8-.3z"/>
            <path id="hcTxt-r1" class="" d="M219.8 49.2c-.4 0-.7 0-1.1-.1-.8-.2-2.4-.4-5.1-3-2.9-2.8-6.2-7-10.4-12.2 4.6-3.7 6.6-6.7 6.6-10.1 0-3.1-2-5.4-3.3-6.3-2.5-1.7-6-1.9-9-1.9-1.5 0-5.8.1-7.4.1-1 0-4-.1-6.5-.1-.7 0-1.1.1-1.1.4 0 .3.3.5.8.5.7 0 1.5 0 1.9.2 1.5.4 1.8.9 1.9 2.5 0 1.5-.1 2.8-.1 9.7V37c0 4.2.1 7.8-.1 9.8-.2 1.3-.4 2.2-1.4 2.4-.4.1-.9.2-1.6.2-.6 0-.7.3-.7.5 0 .3.3.5.9.5 1.9 0 4.9-.2 5.8-.2.7 0 4.6.2 7.4.2.6 0 1-.2 1-.5 0-.2-.2-.5-.6-.5-.6 0-1.6 0-2.3-.2-1.5-.2-1.8-1.1-2-2.4-.2-1.9-.4-5.5-.4-9.8v-.6c0-.3.3-.4.5-.4l4.3.1c.3 0 .6 0 .9.3.6.7 2.6 3.8 4.5 6.3 2.6 3.5 4.4 5.6 6.5 6.6 1.2.6 2.5.8 5.2.8h4.5c.6 0 .9 0 .9-.4 0-.3-.2-.5-.5-.5zm-19.1-16.4c-.8.6-1.5.8-3.3.8-1.2 0-2.7-.1-3.8-.4-.3-.2-.6-.3-.6-.8V18.7c0-.4.2-.5.6-.6.5-.1 1.7-.2 2.9-.2 2.8 0 7.3 1.7 7.3 8.1-.1 3.8-1.7 5.8-3.1 6.8z"/>
            <path id="hcTxt-t1" class="" d="M265 15.2c-.2 0-.5.3-1.3.4-.7.1-1.7.4-3.2.4h-19.3c-1.6 0-3.3-.2-4.8-.4-1.2-.2-1.7-.6-2-.6-.3 0-.4.2-.5.8-.1.4-1 4.8-1 5.5 0 .5.1.7.4.7.3 0 .4-.2.5-.6.1-.3.3-.9.8-1.6.7-1 1.7-1.4 4.4-1.4l6.9-.2v18.6c0 4.2.1 7.8-.1 9.8-.2 1.3-.4 2.2-1.3 2.4-.4.1-.9.2-1.6.2-.6 0-.7.3-.7.5 0 .3.3.5.9.5 1.9 0 5.1-.2 6.2-.2 1.4 0 4.5.2 7.7.2.5 0 .9-.2.9-.5 0-.2-.2-.5-.8-.5-.7 0-1.8 0-2.4-.2-1.4-.2-1.5-1.1-1.6-2.4-.2-2-.1-5.6-.1-9.8V18.3l5.8.1c4.3 0 5.4 1.5 5.5 2.6v.5c.1.7.1.9.5.9.3 0 .4-.3.4-.8 0-1.2.1-4.6.1-5.5.1-.6 0-.9-.3-.9z"/>
            <path id="hcTxt-c1" class="" d="M321.8 41.5c-.4 0-.5.2-.6.9-.2.9-.8 2.1-1.6 3.1-1.9 2.1-4.2 2.4-8.4 2.4-6.4 0-14.8-5.2-14.8-16.1 0-4.5.9-8.9 4.4-11.9 2.2-1.8 4.8-2.6 9-2.6 4.4 0 7.5 1.1 9.2 2.7 1.2 1.2 1.8 2.8 1.8 4.3 0 .6.1 1 .5 1s.6-.5.7-1.1c0-.9 0-3.5.2-5 .1-1.6.2-2.2.2-2.5 0-.3-.2-.5-.7-.5-1.4-.2-3-.5-4.7-.8-2.2-.3-3.9-.5-6.9-.5-7.1 0-11.6 1.8-15 4.9-4.5 4-5.5 9.4-5.5 12.6 0 4.4 1.2 9.6 5.9 13.5 4.3 3.6 9.8 5 16.3 5 3.1 0 6.7-.3 8.6-1 .8-.3 1-.5 1.2-1.3.5-1.6 1-5.5 1-6.1-.3-.5-.5-1-.8-1z"/>
            <path id="hcTxt-o1" class="" d="M365 14.9c-14.4 0-19.9 10.1-19.9 18 0 8.1 5.6 18 19.4 18 12.2 0 19.9-8.3 19.9-18.8 0-10.6-7.5-17.2-19.4-17.2zm1.4 33.4c-9 0-14.3-7.5-14.3-16.9 0-11.3 6.2-14.1 11.5-14.1 7.7 0 13.8 6.3 13.8 16.4-.1 13.1-7.6 14.6-11 14.6z"/>
            <path id="hcTxt-r2" class="" d="M443.5 49.2c-.4 0-.6 0-1.1-.1-.8-.2-2.4-.4-5.1-3-2.9-2.8-6.2-7-10.4-12.2 4.6-3.7 6.6-6.7 6.6-10.1 0-3.1-2-5.4-3.3-6.3-2.5-1.7-6-1.9-9-1.9-1.5 0-5.8.1-7.4.1-1 0-4-.1-6.5-.1-.7 0-1.1.1-1.1.4 0 .3.3.5.8.5.7 0 1.5 0 1.9.2 1.5.4 1.9.9 2 2.5.1 1.5 0 2.8 0 9.7V37c0 4.2 0 7.8-.2 9.8-.2 1.3-.4 2.2-1.4 2.4-.4.1-1 .2-1.7.2-.6 0-.8.3-.8.5 0 .3.3.5.9.5 1.9 0 4.9-.2 5.8-.2.7 0 4.6.2 7.4.2.6 0 1-.2 1-.5 0-.2-.2-.5-.6-.5-.6 0-1.6 0-2.3-.2-1.5-.2-1.7-1.1-1.9-2.4-.2-1.9-.3-5.5-.3-9.8v-.6c0-.3.2-.4.4-.4l4.3.1c.3 0 .6 0 .9.3.6.7 2.6 3.8 4.5 6.3 2.6 3.5 4.4 5.6 6.5 6.6 1.2.6 2.5.8 5.2.8h4.5c.6 0 .9 0 .9-.4.1-.3-.1-.5-.5-.5zm-19.1-16.4c-.8.6-1.5.8-3.3.8-1.2 0-2.6-.1-3.6-.4-.3-.2-.5-.3-.5-.8V18.7c0-.4.1-.5.5-.6.5-.1 1.6-.2 2.8-.2 2.8 0 7.2 1.7 7.2 8.1 0 3.8-1.6 5.8-3.1 6.8z"/>
            <path id="hcTxt-e2" class="" d="M485.7 43c-.3 0-.4.2-.5.7-.3 1.9-.9 2.9-2 3.4-1.2.5-3.2.6-4.5.6-4.9 0-6.4-.7-6.5-3.8-.1-1.3-.1-5.2-.1-6.8v-3.7c0-.3.1-.5.3-.5 1.2 0 6.6.1 7.5.2 1.8.2 2.4.9 2.7 1.8.1.6.1 1.2.2 1.7 0 .2.1.4.4.4.4 0 .5-.7.5-1 0-.3.1-2.1.2-3.1.3-2.3.4-3.1.4-3.3 0-.3-.2-.5-.4-.5s-.4.3-.7.6c-.5.4-1.1.6-2.3.7-1.1.1-7.3.1-8.4.1-.3 0-.4-.2-.4-.5V18.6c0-.3.2-.4.4-.4 1 0 6.7.1 7.5.2 2.4.2 2.8.9 3.2 1.7.3.5.3 1.3.3 1.7 0 .4.1.6.4.6.4 0 .5-.5.5-.8.1-.5.2-2.5.3-3 .1-2.1.4-2.6.4-3 0-.2-.1-.4-.3-.4-.2 0-.5.2-.7.2-.4 0-1.1.2-2 .3h-12.9c-1.3 0-4.4-.1-6.8-.1-.7 0-1.1.1-1.1.4 0 .3.3.5.8.5.7 0 1.5 0 1.9.2 1.5.4 2 .9 2.1 2.5 0 1.5.1 2.8.1 9.7V37c0 4.2-.1 7.8-.3 9.8-.2 1.3-.5 2.2-1.5 2.4-.4.1-1 .2-1.7.2-.6 0-.8.3-.8.5 0 .3.3.5.9.5 1 0 2.1-.1 3.3-.1h2.7c1.4 0 3.2 0 5.5.1s5.2.2 8.7.2c1.8 0 2.2 0 2.5-1.2.3-.9.6-4 .6-5.1 0-.7-.1-1.3-.4-1.3z"/>
    </g>
    <g id="heartLogo" class="">
      <g id="heartImage" class="">
      <path id="heart_wArms" class="" d="M435.2 78.9l46-4.5 1-5.5-163.3 15.6c-40.7-24.3-68.2 3.4-68.9 4.1-.7-.7-28.2-28.4-68.8-4.1L17.8 68.8l1 5.5 46 4.5.6 2.2 93.4 8.8-2.3 3.2L35 81.4l5.9 7.5 31.8 2.9 9.6.9 81.8 7.5c-13.6 21.4 5.8 37.4 5.8 37.4s41.8 43.8 54.8 60.2c2.7 3.5 5.7 8.4 8.6 13.8.5.9.9 1.8 1.4 2.7 4 7.7 7.8 16.3 10.6 22.9.5 1.3 1.1 1.8 1.5 3.8 2.1 5 3.4 8.1 3.4 8.1l3.3-8.6.2-.7.6-2.7c4.1-17.3 10.2-25.7 21-39.4 12.9-16.4 54.8-60.2 54.8-60.2s19.4-16 5.8-37.4l81.8-7.5 9.6-.9 31.8-2.9 5.9-7.5L343.5 93l-2.3-3.2 93.3-8.8.7-2.1zM168.6 94.2l-5.2-.5 2.1-3.2 6.1.6c-1.1 1-2.1 2-3 3.1zm151 28c-5.9 18.3-28.2 38.6-48.6 68.9-15.3 22.7-19.7 38.7-20.8 48-1.3-9.3-5.9-25.3-21.2-48-20.3-30.3-42.7-50.6-48.6-68.9-2.6-8.1.7-16.8 7.9-21.2 14.2-8.6 36.6-14.1 61.4 6.3 24.8-20.3 47.4-14.9 61.6-6.3 7.3 4.5 10.9 13.1 8.3 21.2zm11.8-28c-.9-1-1.9-2.1-3-3.1l6.1-.6 2.1 3.2-5.2.5z"/>
            <circle id="heart_core" class="" cx="250.2" cy="148.5" r="11.9"/>
      </g>
            <path id="heart-tm" class="" d="M435.6 99.2h-2.1c-.8 0-1.1.1-1.3.4-.1.2-.2.4-.2.5 0 .1-.1.2-.2.2s-.1-.1-.1-.2c0-.2.3-1.5.3-1.6 0-.2.1-.3.2-.3s.3.1.6.2c.4 0 .9.1 1.4.1h5.6c.4 0 .7 0 .9-.1.2 0 .3-.1.4-.1.1 0 .1.1.1.3v1.6c0 .1 0 .2-.1.2s-.1-.1-.2-.3v-.1c0-.3-.4-.8-1.6-.8h-1.7v5.4c0 1.2 0 2.3.1 2.9 0 .4.1.6.5.7h.7c.2 0 .2.1.2.1 0 .1-.1.1-.3.1h-4c-.2 0-.3 0-.3-.1s0-.1.2-.1h.5c.3-.1.4-.3.4-.7.1-.6.1-1.6.1-2.8v-5.5zm9.4-.7c0-.2.2-.3.3-.3.1 0 .2.1.4.4l3.7 7.4 3.7-7.5c.1-.2.2-.3.4-.3.1 0 .3.1.3.4l1.3 8.2c.1.8.3 1.2.7 1.3.4.1.6.1.8.1.1 0 .2 0 .2.1s-.2.2-.4.2c-.3 0-2.3 0-2.9-.1-.3 0-.4-.1-.4-.2s.1-.1.2-.1.1-.2.1-.6l-.8-5.8-3 5.9c-.3.6-.4.8-.5.8-.2 0-.3-.3-.5-.7-.3-.6-1.4-2.7-1.6-3-.1-.3-.9-1.9-1.4-2.8l-.7 5.1v.6c0 .3.2.3.4.4.2 0 .4.1.5.1.1 0 .2.1.2.1 0 .1-.1.2-.3.2h-2.9c-.1 0-.3 0-.3-.2 0-.1.1-.1.2-.1h.4c.4 0 .5-.6.6-1l1.3-8.6z"/>
      <g id="heart_wingL" class="">
            <path id="heart_wingL-l" class="" d="M250.3 239.5l-1 2.2s-3.3-1.6-9.2-4.3c-2.9-1.4-6.4-3.2-10.4-5.3-2-1-4.1-2.2-6.3-3.4-2.2-1.2-4.6-2.5-6.9-3.9-2.4-1.4-4.9-2.9-7.5-4.4-1.1-.7-2.2-1.4-3.3-2-1-.6-2-1.2-3-1.9-.1-.1-.3-.2-.4-.2-.4-.2-.8-.5-1.2-.7-5.3-3.4-10.9-7.1-16.6-11.2-2.9-2-5.7-4.1-8.5-6.2-2.9-2.1-5.7-4.3-8.6-6.6-5.7-4.5-11.4-9.2-17.1-14-2.8-2.4-5.6-4.9-8.3-7.3l-8.1-7.5c-2.6-2.5-5.3-5-7.8-7.5-2.6-2.5-5-5-7.4-7.5-2.4-2.5-4.7-5-7-7.4-2.2-2.5-4.5-4.9-6.6-7.3-4.2-4.7-8.1-9.4-11.7-13.6-3.5-4.3-6.7-8.3-9.4-11.9-2.8-3.6-5.1-6.8-7-9.4-1.9-2.6-3.3-4.8-4.3-6.2-1-1.5-1.5-2.3-1.5-2.3l6.4-4s.5.8 1.4 2.2c.9 1.4 2.3 3.5 4.1 6.1 1.8 2.6 4 5.8 6.6 9.4 1 1.4 2.1 2.9 3.3 4.5 1.1 1.5 2.3 3 3.5 4.6.7.9 1.4 1.9 2.2 2.8 2.5 3.1 5.2 6.4 8 9.9 1 1.3 2.1 2.5 3.2 3.8.2.3.4.5.7.8 1.8 2.1 3.7 4.3 5.7 6.5 1.2 1.3 2.3 2.6 3.5 3.9l3.3 3.6c.3.3.6.7.9 1 2 2.2 4.1 4.4 6.2 6.6 1.3 1.3 2.5 2.6 3.8 3.9l3.7 3.7.9.9c2.3 2.3 4.6 4.4 6.9 6.7 1.3 1.3 2.7 2.5 4.1 3.8 1.3 1.2 2.7 2.4 4 3.6.3.3.7.6 1 .9 4.1 3.6 8.2 7.2 12.3 10.6 1.1.9 2.2 1.8 3.2 2.7l1.8 1.5c2.2 1.8 4.3 3.4 6.5 5 2 1.5 4 2.4 6 4.4.8 1 1.6 1.3 2.4 1.9 1.2.9 2.3 1.8 3.4 2.6 4.3 3.1 8.6 6.1 12.7 8.9.8.5 1.6 1.1 2.4 1.6 1.8 1.2 3.6 2.3 5.3 3.5l.6.3c2.3 1.4 4.6 2.8 6.7 4.2 2.3 1.5 4.6 2.7 6.8 4 2.2 1.2 4.2 2.5 6.2 3.5 3.9 2.1 7.3 4 10.2 5.5 5.9 2.7 9.2 4.4 9.2 4.4z"/>
                <path id="heart_wingL-f1" class="" d="M134.3 115.4c1.1 0 2.1-.9 2.1-2 .1-1.2-.8-2.2-2-2.3l-43.9-3.5c-1.2-.1-2.2.8-2.3 2-.1 1.2.8 2.2 2 2.3l43.9 3.5h.2z"/>
                <path id="heart_wingL-f2" class="" d="M144.2 132c1.1 0 2.1-.9 2.1-2 .1-1.2-.8-2.2-2-2.3l-40.8-2.8c-1.2-.1-2.2.8-2.3 2-.1 1.2.8 2.2 2 2.3L144 132h.2z"/>
                <path id="heart_wingL-f3" class="" d="M154.3 146.4c1.1 0 2.1-.9 2.2-2 .1-1.2-.8-2.2-2-2.3l-36.9-2.2c-1.2-.1-2.2.8-2.3 2-.1 1.2.8 2.2 2 2.3l36.9 2.2h.1z"/>
                <path id="heart_wingL-f4" class="" d="M166.3 160c1.2 0 2.1-.9 2.2-2.1 0-1.2-.9-2.3-2.1-2.3l-33.8-.6c-1.2 0-2.2 1-2.2 2.2s.9 2.1 2.1 2.1l33.8.7z"/>
                <path id="heart_wingL-f5" class="" d="M182.4 175c1.2 0 2.1-.8 2.2-2 0-1.2-.9-2.2-2.1-2.2l-33.7-.7c-1.2-.1-2.2 1-2.2 2.2 0 1.2.9 2 2.1 2l33.7.7c-.1 0-.1 0 0 0z"/>
                <path id="heart_wingL-f6" class="" d="M200.1 187c0-1.2-1-2-2.2-2h-30.2c-1.2 0-2.2.8-2.2 2s1 2 2.2 2H198c1.2 0 2.1-.8 2.1-2z"/>
                <path id="heart_wingL-f7" class="" d="M218.5 201c0-1.2-1-2-2.2-2H185c-1.2 0-2.2.8-2.2 2s1 2 2.2 2h31.3c1.2 0 2.2-.8 2.2-2z"/>
                <path id="heart_wingL-f8" class="" d="M234.8 213.5c.1 1.2-.8 2.2-2 2.4l-21.5 2-5.7.5c-1-.6-2-1.2-3-1.9-.1-.1-.3-.2-.4-.2.1-1.1 1-2 2.1-2.1l1-.1h.1l26.9-2.5c1.3-.2 2.4.7 2.5 1.9z"/>
            </g>
            <g id="heart_wingR" class="">
            <path id="heart_wingR-l" class="" d="M249.7 239.5l1 2.2s3.3-1.6 9.2-4.3c2.9-1.4 6.4-3.2 10.4-5.3 2-1 4.1-2.2 6.3-3.4 2.2-1.2 4.6-2.5 6.9-3.9 2.4-1.4 4.9-2.9 7.5-4.4 1.1-.7 2.2-1.4 3.3-2 1-.6 2-1.2 3-1.9.1-.1.3-.2.4-.2.4-.2.8-.5 1.2-.7 5.3-3.4 10.9-7.1 16.6-11.2 2.9-2 5.7-4.1 8.5-6.2 2.9-2.1 5.7-4.3 8.6-6.6 5.7-4.5 11.4-9.2 17.1-14 2.8-2.4 5.6-4.9 8.3-7.3l8.1-7.5c2.6-2.5 5.3-5 7.8-7.5 2.6-2.5 5-5 7.4-7.5 2.4-2.5 4.7-5 7-7.4 2.2-2.5 4.5-4.9 6.6-7.3 4.2-4.7 8.1-9.4 11.7-13.6 3.5-4.3 6.7-8.3 9.4-11.9 2.8-3.6 5.1-6.8 7-9.4 1.9-2.6 3.3-4.8 4.3-6.2 1-1.5 1.5-2.3 1.5-2.3l-6.4-4s-.5.8-1.4 2.2c-.9 1.4-2.3 3.5-4.1 6.1-1.8 2.6-4 5.8-6.6 9.4-1 1.4-2.1 2.9-3.3 4.5-1.1 1.5-2.3 3-3.5 4.6-.7.9-1.4 1.9-2.2 2.8-2.5 3.1-5.2 6.4-8 9.9-1 1.3-2.1 2.5-3.2 3.8-.2.3-.4.5-.7.8-1.8 2.1-3.7 4.3-5.7 6.5-1.2 1.3-2.3 2.6-3.5 3.9l-3.3 3.6c-.3.3-.6.7-.9 1-2 2.2-4.1 4.4-6.2 6.6-1.3 1.3-2.5 2.6-3.8 3.9l-3.7 3.7-.9.9c-2.3 2.3-4.6 4.4-6.9 6.7-1.3 1.3-2.7 2.5-4.1 3.8-1.3 1.2-2.7 2.4-4 3.6-.3.3-.7.6-1 .9-4.1 3.6-8.2 7.2-12.3 10.6-1.1.9-2.2 1.8-3.2 2.7l-1.8 1.5c-2.2 1.8-4.3 3.4-6.5 5-2 1.5-4 2.4-6 4.4-.8 1-1.6 1.3-2.4 1.9-1.2.9-2.3 1.8-3.4 2.6-4.3 3.1-8.6 6.1-12.7 8.9-.8.5-1.6 1.1-2.4 1.6-1.8 1.2-3.6 2.3-5.3 3.5l-.6.3c-2.3 1.4-4.6 2.8-6.7 4.2-2.3 1.5-4.6 2.7-6.8 4-2.2 1.2-4.2 2.5-6.2 3.5-3.9 2.1-7.3 4-10.2 5.5-5.9 2.7-9.2 4.4-9.2 4.4z"/>
                <path id="heart_wingR-f1" class="" d="M365.7 115.4c-1.1 0-2.1-.9-2.1-2-.1-1.2.8-2.2 2-2.3l43.9-3.5c1.2-.1 2.2.8 2.3 2 .1 1.2-.8 2.2-2 2.3l-43.9 3.5h-.2z"/>
                <path id="heart_wingR-f2" class="" d="M355.8 132c-1.1 0-2.1-.9-2.1-2-.1-1.2.8-2.2 2-2.3l40.8-2.8c1.2-.1 2.2.8 2.3 2 .1 1.2-.8 2.2-2 2.3L356 132h-.2z"/>
                <path id="heart_wingR-f3" class="" d="M345.7 146.4c-1.1 0-2.1-.9-2.2-2-.1-1.2.8-2.2 2-2.3l36.9-2.2c1.2-.1 2.2.8 2.3 2 .1 1.2-.8 2.2-2 2.3l-36.9 2.2h-.1z"/>
                <path id="heart_wingR-f4" class="" d="M333.7 160c-1.2 0-2.1-.9-2.2-2.1 0-1.2.9-2.3 2.1-2.3l33.8-.6c1.2 0 2.2 1 2.2 2.2 0 1.2-.9 2.1-2.1 2.1l-33.8.7z"/>
                <path id="heart_wingR-f5" class="" d="M317.6 175c-1.2 0-2.1-.8-2.2-2 0-1.2.9-2.2 2.1-2.2l33.7-.7c1.2-.1 2.2 1 2.2 2.2 0 1.2-.9 2-2.1 2l-33.7.7c.1 0 .1 0 0 0z"/>
                <path id="heart_wingR-f6" class="" d="M299.9 187c0-1.2 1-2 2.2-2h30.2c1.2 0 2.2.8 2.2 2s-1 2-2.2 2H302c-1.2 0-2.1-.8-2.1-2z"/>
                <path id="heart_wingR-f7" class="" d="M281.5 201c0-1.2 1-2 2.2-2H315c1.2 0 2.2.8 2.2 2s-1 2-2.2 2h-31.3c-1.2 0-2.2-.8-2.2-2z"/>
                <path id="heart_wingR-f8" class="" d="M265.2 213.5c-.1 1.2.8 2.2 2 2.4l21.5 2 5.7.5c1-.6 2-1.2 3-1.9.1-.1.3-.2.4-.2-.1-1.1-1-2-2.1-2.1l-1-.1h-.1l-26.9-2.5c-1.3-.2-2.4.7-2.5 1.9z"/>

      </g>
    </g>
    <g id="hcMusicTxt">
            <path id="hcMusicTxt-m1" class="" d="M207.3 285.3c-.5 0-1.2-.1-2.5-.4-1.3-.4-1.7-1.5-2.1-4.2l-4-26c-.1-.9-.6-1.3-1-1.3s-.8.4-1.1 1.1l-11.7 23.6-11.7-23.3c-.6-1.1-.9-1.3-1.3-1.3-.3 0-.7.4-.8 1.1l-4.3 27.3c-.2 1.4-.6 3.1-1.8 3.2-.7.1-1 .1-1.3.1-.4 0-.7.2-.7.4 0 .4.3.5.8.5 1.4 0 3.5-.2 4.3-.2.8 0 2.8.2 4.6.2.6 0 1-.1 1-.5 0-.2-.3-.4-.7-.4s-.8 0-1.5-.2c-.7-.1-1.3-.4-1.3-1.2 0-.7 0-1.5.2-2.2l2.1-16.5h.2c1.4 3 4 8.3 4.4 9.1.5 1.2 4 7.8 5 9.7.7 1.3 1.2 2.2 1.7 2.2s.7-.4 1.7-2.3l9.4-18.6h.2l2.4 18.2c.2 1.2 0 1.7-.2 1.8-.3.1-.5.2-.5.4s.3.4 1.3.5c1.7.1 7.9.2 9 .2.6 0 1.1-.2 1.1-.5-.2-.4-.5-.5-.9-.5z"/>
            <path id="hcMusicTxt-u1" class="" d="M246.2 254.1c-1.7 0-4.6.1-5.1.1 0 0-3-.1-5.2-.1-.6 0-.9.1-.9.4 0 .3.3.5.8.5s1.2 0 1.6.2c1.4.4 1.6.8 1.7 2.3.1 1.3 0 2.5 0 8.9v5.3c0 4.3 0 8-2.4 10.3-1.7 1.7-3.9 2.2-5.8 2.2-1.5 0-3.6-.2-5.5-1.7-2.1-1.7-3.3-4.1-3.3-10.2v-5.9c0-6.4 0-7.6.1-8.9.1-1.5.5-2.1 1.6-2.3.6-.1.8-.2 1.3-.2.4 0 .7-.2.7-.5s-.3-.4-.9-.4c-1.6 0-4.5.1-5.6.1-1.3 0-4.2-.1-6.5-.1-.7 0-.9.1-.9.4 0 .3.3.5.8.5.6 0 1.3 0 1.7.2 1.4.4 1.8.8 1.9 2.3.1 1.3 0 2.5 0 8.9v6.2c0 6.1 1.8 9.2 4 11.2 3.2 2.8 7.7 2.9 10 2.9 2.8 0 6-.5 9-3 3.7-3 4-8 4-12.7v-4.5c0-6.4.2-7.6.3-8.9.1-1.5.5-2.1 1.7-2.3.5-.1.8-.2 1.3-.2s.8-.2.8-.5c-.3-.3-.6-.5-1.2-.5z"/>
            <path id="hcMusicTxt-s1" class="" d="M267.9 266.8l-1.8-1c-3.9-2.2-4.6-3.7-4.6-5.6 0-2.9 2.8-4.5 6-4.5 2.8 0 4.2 1.2 4.9 2 .9 1.1 1.1 2.4 1.1 2.8 0 .5.2.7.5.7s.5-.4.5-1.3c0-3.3.2-4.5.2-5.1 0-.3-.2-.4-.6-.5-1.1-.3-3.4-.7-6.2-.7-6 0-11 3.3-11 8.5 0 3.7 1.7 6.5 6.8 9.6l2.5 1.5c3.9 2.3 4.3 4.1 4.3 6 0 3-2.3 5.4-6 5.4-2.7 0-6-1-7-4.2-.2-.8-.4-1.6-.4-2.2 0-.3 0-.7-.5-.7-.3 0-.5.4-.5 1.1 0 .7-.3 3.3-.3 5.6 0 .9.2 1.1.8 1.4 1.9.8 4.6 1.1 7.1 1.1 2.3 0 5.2-.3 7.3-1.7 3.2-2.2 4.4-4.8 4.4-7.9.1-4-1.7-7.2-7.5-10.3z"/>
            <path id="hcMusicTxt-i1" class="" d="M298.4 285.2c-.7 0-1.6 0-2.2-.1-1.3-.2-1.7-.8-1.8-2-.2-1.8-.3-5.2-.3-9.2v-7.5c0-6.4.1-7.6.2-8.9.1-1.5.5-2.1 1.7-2.3.5-.1.9-.2 1.3-.2.5 0 .7-.1.7-.5 0-.3-.3-.4-.9-.4-1.7 0-4.5.1-5.6.1-1.2 0-4.2-.1-5.8-.1-.7 0-1 .1-1 .4 0 .4.3.5.7.5.5 0 1.1 0 1.6.2 1 .3 1.2.8 1.3 2.2 0 1.3-.1 2.5-.1 8.9v7.5c0 4.1.2 7.4 0 9.2-.1 1.2-.3 1.8-1.2 2-.4.1-.8.1-1.5.1-.5 0-.7.3-.7.4 0 .3.3.5.9.5 1.7 0 4.7-.2 5.7-.2 1.2 0 4.2.2 7.1.2.5 0 .8-.2.8-.5-.2-.1-.4-.3-.9-.3z"/>
            <path id="hcMusicTxt-c1" class="" d="M336.7 278.1c-.4 0-.5.2-.5.8-.2.8-.7 2-1.5 2.8-1.7 1.9-3.9 2.2-7.7 2.2-5.8 0-13.6-4.8-13.6-14.8 0-4.1.8-8.2 4-11 2-1.7 4.4-2.4 8.2-2.4 4 0 7 1.1 8.4 2.5 1.1 1.1 1.6 2.6 1.7 3.9 0 .5.1.9.5.9s.5-.5.6-1c0-.8 0-3.2.1-4.6.1-1.5.2-2 .2-2.3 0-.3-.2-.5-.6-.5-1.3-.2-2.7-.4-4.4-.7-2-.3-3.6-.5-6.4-.5-6.5 0-10.7 1.7-13.8 4.5-4.2 3.7-5.1 8.7-5.1 11.6 0 4.1 1.1 8.8 5.5 12.5 4 3.3 9 4.6 15 4.6 2.8 0 6.2-.3 7.9-1 .7-.3.9-.5 1.1-1.2.5-1.4.9-5.1.9-5.6 0-.3-.2-.7-.5-.7z"/>
    </g>
</svg>
