<svg id="sasa_svg" xmlns="http://www.w3.org/2000/svg" viewBox="0 0 520 70">
    <g  id="sasa-letters" class="">
        <path id="sasa-s1" class="" d="M50.4 32l-3.9-1c-11.4-3.2-14.6-5-14.6-7.4 0-3.1 6.2-5.3 16.4-5.3 9 0 13 1.6 15 2.5 2.9 1.3 3.6 2.9 3.6 3.4 0 .6.4.9 1.4.9 1.1 0 1.5-.4 1.5-1.5 0-4 .5-5.5.5-6.2 0-.4-.7-.5-1.9-.6-3.6-.4-9.4-.9-18.3-.9-19.2 0-31.9 4.1-31.9 9.7 0 4.2 5.2 7.8 20.4 12.2l6.3 1.9c11.5 3.3 13.5 5.7 13.5 8.2 0 2.7-6.1 5.9-18.5 5.9-8.6 0-16.7-1.4-19.7-5.2-.7-.9-1.2-2-1.2-2.6 0-.4-.1-.9-1.4-.9-1.1 0-1.5.6-1.6 1.3-.1.8-.7 3.9-.7 6.7 0 1.1.4 1.4 2.6 1.8 5.9 1 12.1 1.3 20.1 1.3 7.3 0 15-.5 21.9-2.1 9.9-2.4 13-6 13-9C73 40.3 67 36.7 50.4 32z"/>
        <path id="sasa-a1" class="" d="M229.7 55.1c-1.5 0-3-.1-4.9-.2-2.4-.2-6.1-.9-11.2-5.6-8.4-7.9-30.3-29.1-33.4-32-1.3-1.2-1.9-1.7-3.9-1.7-1.3 0-2.4.6-3.9 2.1l-34.3 32.6c-2.7 2.6-4.9 4.2-10.9 4.6-1.2 0-2.7.1-3.9.1-1 0-1.5.2-1.5.5 0 .4.8.5 2.4.5 6.9 0 13.9-.2 15.2-.2 4.2 0 10.3.2 14.6.2 1.3 0 2.1-.7 2.1-1.1 0-.3-.3-1.1-1.9-1.1h-1.9c-4 0-5.2 0-5.2-.9 0-.6.6-1.6 1.9-2.9l7-6.9 3.3-3.5.1-.1 12.7-13c.1-.2.3-.5.8-.5.3 0 .4.3.6.5l12.4 13.1 3.6 3.6L199.6 54c.6.6-.3 1.1-1.2 1.2-1.4.1-1.7.2-1.7.5 0 .4 1.5.4 3.9.4 11 .1 20.6.1 25.2.1 4.9 0 5.7-.1 5.7-.5s-.6-.6-1.8-.6z"/>
        <path id="sasa-s2" class="" d="M323.5 32l-3.9-1.1c-11.5-3.2-14.6-5-14.6-7.4 0-3.1 6.2-5.3 16.4-5.3 9 0 13 1.6 15 2.5 2.9 1.3 3.6 2.9 3.6 3.4 0 .6.4.9 1.4.9 1.1 0 1.5-.4 1.5-1.5 0-4 .6-5.5.6-6.2 0-.4-.7-.5-1.9-.6-3.6-.4-9.4-.9-18.4-.9-19.2 0-31.8 4.1-31.8 9.7 0 4.2 5.2 7.8 20.4 12.2l6.3 1.9c11.5 3.3 13.5 5.7 13.5 8.2 0 2.7-6.1 5.9-18.5 5.9-8.5 0-16.7-1.4-19.7-5.2-.7-.9-1.2-2-1.2-2.6 0-.4-.1-.9-1.4-.9-1.1 0-1.5.6-1.7 1.3-.1.8-.7 3.9-.7 6.7 0 1.1.4 1.4 2.6 1.8 5.9 1 12.1 1.3 20.1 1.3 7.3 0 15-.5 21.9-2.1 9.9-2.4 13-6 13-9 .1-4.7-5.8-8.3-22.5-13z"/>
      <path id="sasa-a2" class="" d="M502.9 55.1c-1.5 0-3-.1-4.9-.2-2.4-.2-6.1-.9-11.2-5.6-8.4-7.9-30.3-29.1-33.4-32-1.4-1.2-1.9-1.7-3.9-1.7-1.4 0-2.4.6-3.9 2.1l-34.3 32.6c-2.7 2.6-4.9 4.2-10.9 4.6-1.2 0-2.7.1-3.9.1-1 0-1.5.2-1.5.5 0 .4.8.5 2.4.5 6.9 0 13.9-.2 15.2-.2 4.2 0 10.3.2 14.6.2 1.4 0 2.1-.7 2.1-1.1 0-.3-.3-1.1-1.9-1.1h-1.9c-4 0-5.2 0-5.2-.9 0-.6.6-1.6 1.9-2.9l7-6.9 3.4-3.5.1-.1 12.7-13c.1-.2.3-.5.8-.5.3 0 .4.3.6.5L459 39.8l3.6 3.6L472.7 54c.6.6-.3 1.1-1.2 1.2-1.3.1-1.6.2-1.6.5 0 .4 1.5.4 3.9.4 11 .1 20.6.1 25.2.1 4.9 0 5.7-.1 5.7-.5s-.6-.6-1.8-.6z"/>
    </g>
</svg>
